LightWide.ufo
<glyph name="exclam" format="1">
  <advance width="314"/>
  <unicode hex="0021"/>
  <outline>
    <contour>
      <point x="162" y="709" type="line"/>
      <point x="152" y="709" type="line"/>
      <point x="153" y="152" type="line"/>
      <point x="161" y="152" type="line"/>
    </contour>
    <contour>
      <point x="151" y="77" type="line"/>
      <point x="151" y="0" type="line"/>
      <point x="163" y="0" type="line"/>
      <point x="163" y="77" type="line"/>
    </contour>
  </outline>
</glyph>
<glyph name="numbersign" format="1">
  <advance width="707"/>
  <unicode hex="0023"/>
  <outline>
    <contour>
      <point x="398" y="261" type="line"/>
      <point x="292" y="0" type="line"/>
      <point x="307" y="0" type="line"/>
      <point x="413" y="261" type="line"/>
      <point x="586" y="261" type="line"/>
      <point x="591" y="273" type="line"/>
      <point x="417" y="273" type="line"/>
      <point x="483" y="433" type="line"/>
      <point x="656" y="433" type="line"/>
      <point x="661" y="445" type="line"/>
      <point x="488" y="445" type="line"/>
      <point x="588" y="692" type="line"/>
      <point x="574" y="692" type="line"/>
      <point x="474" y="445" type="line"/>
      <point x="308" y="445" type="line"/>
      <point x="408" y="692" type="line"/>
      <point x="394" y="692" type="line"/>
      <point x="294" y="445" type="line"/>
      <point x="120" y="445" type="line"/>
      <point x="116" y="433" type="line"/>
      <point x="288" y="433" type="line"/>
      <point x="223" y="273" type="line"/>
      <point x="50" y="273" type="line"/>
      <point x="46" y="261" type="line"/>
      <point x="218" y="261" type="line"/>
      <point x="112" y="0" type="line"/>
      <point x="126" y="0" type="line"/>
      <point x="233" y="261" type="line"/>
    </contour>
    <contour>
      <point x="403" y="273" type="line"/>
      <point x="237" y="273" type="line"/>
      <point x="303" y="433" type="line"/>
      <point x="469" y="433" type="line"/>
    </contour>
  </outline>
</glyph>
<glyph name="dollar" format="1">
  <advance width="844"/>
  <unicode hex="0024"/>
  <outline>
    <contour>
      <point x="423" y="663" type="line"/>
      <point x="562" y="662"/>
      <point x="625" y="621"/>
      <point x="653" y="574" type="curve"/>
      <point x="661" y="584" type="line"/>
      <point x="628" y="635"/>
      <point x="577" y="672"/>
      <point x="423" y="675" type="curve"/>
      <point x="423" y="748" type="line"/>
      <point x="410" y="748" type="line"/>
      <point x="410" y="675" type="line"/>
      <point x="201" y="674"/>
      <point x="155" y="588"/>
      <point x="155" y="531" type="curve" smooth="yes"/>
      <point x="155" y="401"/>
      <point x="317" y="398"/>
      <point x="410" y="372" type="curve"/>
      <point x="410" y="24" type="line"/>
      <point x="302" y="25"/>
      <point x="201" y="49"/>
      <point x="144" y="120" type="curve"/>
      <point x="139" y="105" type="line"/>
      <point x="200" y="33"/>
      <point x="316" y="12"/>
      <point x="410" y="12" type="curve"/>
      <point x="410" y="-70" type="line"/>
      <point x="423" y="-70" type="line"/>
      <point x="423" y="12" type="line"/>
      <point x="582" y="15"/>
      <point x="699" y="95"/>
      <point x="699" y="197" type="curve" smooth="yes"/>
      <point x="699" y="333"/>
      <point x="521" y="356"/>
      <point x="423" y="378" type="curve"/>
    </contour>
    <contour>
      <point x="410" y="382" type="line"/>
      <point x="324" y="406"/>
      <point x="166" y="412"/>
      <point x="166" y="526" type="curve" smooth="yes"/>
      <point x="166" y="588"/>
      <point x="207" y="659"/>
      <point x="410" y="663" type="curve"/>
    </contour>
    <contour>
      <point x="423" y="368" type="line"/>
      <point x="524" y="343"/>
      <point x="688" y="326"/>
      <point x="688" y="195" type="curve" smooth="yes"/>
      <point x="688" y="104"/>
      <point x="578" y="26"/>
      <point x="423" y="24" type="curve"/>
    </contour>
  </outline>
</glyph>
<glyph name="percent" format="1">
  <advance width="1003"/>
  <unicode hex="0025"/>
  <outline>
    <contour>
      <point x="436" y="540" type="line"/>
      <point x="436" y="643"/>
      <point x="365" y="720"/>
      <point x="262" y="720" type="curve" smooth="yes"/>
      <point x="160" y="720"/>
      <point x="88" y="643"/>
      <point x="88" y="540" type="curve" smooth="yes"/>
      <point x="88" y="436"/>
      <point x="160" y="360"/>
      <point x="262" y="360" type="curve" smooth="yes"/>
      <point x="365" y="360"/>
      <point x="436" y="436"/>
      <point x="436" y="539" type="curve"/>
    </contour>
    <contour>
      <point x="780" y="717" type="line"/>
      <point x="765" y="717" type="line"/>
      <point x="223" y="-10" type="line"/>
      <point x="239" y="-10" type="line"/>
    </contour>
    <contour>
      <point x="262" y="373" type="line"/>
      <point x="166" y="373"/>
      <point x="103" y="441"/>
      <point x="103" y="540" type="curve" smooth="yes"/>
      <point x="103" y="638"/>
      <point x="166" y="707"/>
      <point x="262" y="707" type="curve" smooth="yes"/>
      <point x="359" y="707"/>
      <point x="422" y="638"/>
      <point x="422" y="540" type="curve" smooth="yes"/>
      <point x="422" y="441"/>
      <point x="358" y="373"/>
      <point x="263" y="373" type="curve"/>
    </contour>
    <contour>
      <point x="915" y="168" type="line"/>
      <point x="915" y="271"/>
      <point x="843" y="348"/>
      <point x="741" y="348" type="curve" smooth="yes"/>
      <point x="638" y="348"/>
      <point x="567" y="271"/>
      <point x="567" y="168" type="curve" smooth="yes"/>
      <point x="567" y="64"/>
      <point x="638" y="-12"/>
      <point x="741" y="-12" type="curve" smooth="yes"/>
      <point x="843" y="-12"/>
      <point x="915" y="65"/>
      <point x="915" y="167" type="curve"/>
    </contour>
    <contour>
      <point x="741" y="1" type="line"/>
      <point x="644" y="1"/>
      <point x="581" y="70"/>
      <point x="581" y="168" type="curve" smooth="yes"/>
      <point x="581" y="266"/>
      <point x="644" y="335"/>
      <point x="741" y="335" type="curve" smooth="yes"/>
      <point x="837" y="335"/>
      <point x="900" y="266"/>
      <point x="900" y="168" type="curve" smooth="yes"/>
      <point x="900" y="70"/>
      <point x="837" y="1"/>
      <point x="742" y="1" type="curve"/>
    </contour>
  </outline>
</glyph>
<glyph name="ampersand" format="1">
  <advance width="926"/>
  <unicode hex="0026"/>
  <outline>
    <contour>
      <point x="861" y="0" type="line"/>
      <point x="811" y="24"/>
      <point x="757" y="52"/>
      <point x="685" y="98" type="curve"/>
      <point x="749" y="163"/>
      <point x="801" y="250"/>
      <point x="814" y="350" type="curve"/>
      <point x="803" y="350" type="line"/>
      <point x="790" y="250"/>
      <point x="737" y="164"/>
      <point x="675" y="103" type="curve"/>
      <point x="551" y="188"/>
      <point x="448" y="277"/>
      <point x="354" y="370" type="curve"/>
      <point x="470" y="418"/>
      <point x="558" y="468"/>
      <point x="558" y="553" type="curve" smooth="yes"/>
      <point x="558" y="637"/>
      <point x="481" y="674"/>
      <point x="392" y="674" type="curve" smooth="yes"/>
      <point x="310" y="674"/>
      <point x="235" y="634"/>
      <point x="235" y="552" type="curve" smooth="yes"/>
      <point x="235" y="483"/>
      <point x="288" y="420"/>
      <point x="336" y="373" type="curve"/>
      <point x="220" y="333"/>
      <point x="116" y="270"/>
      <point x="116" y="163" type="curve" smooth="yes"/>
      <point x="116" y="44"/>
      <point x="215" y="-14"/>
      <point x="376" y="-14" type="curve" smooth="yes"/>
      <point x="526" y="-14"/>
      <point x="625" y="41"/>
      <point x="675" y="88" type="curve"/>
      <point x="679" y="88" type="line"/>
      <point x="743" y="47"/>
      <point x="789" y="23"/>
      <point x="832" y="0" type="curve"/>
    </contour>
    <contour>
      <point x="247" y="552" type="line"/>
      <point x="247" y="616"/>
      <point x="301" y="661"/>
      <point x="397" y="661" type="curve" smooth="yes"/>
      <point x="477" y="661"/>
      <point x="547" y="624"/>
      <point x="547" y="556" type="curve" smooth="yes"/>
      <point x="547" y="474"/>
      <point x="456" y="424"/>
      <point x="345" y="378" type="curve"/>
      <point x="290" y="436"/>
      <point x="247" y="487"/>
      <point x="247" y="551" type="curve"/>
    </contour>
    <contour>
      <point x="127" y="162" type="line"/>
      <point x="127" y="247"/>
      <point x="196" y="311"/>
      <point x="344" y="365" type="curve"/>
      <point x="443" y="265"/>
      <point x="560" y="166"/>
      <point x="668" y="94" type="curve"/>
      <point x="584" y="22"/>
      <point x="481" y="-1"/>
      <point x="377" y="-1" type="curve" smooth="yes"/>
      <point x="323" y="-1"/>
      <point x="127" y="3"/>
      <point x="127" y="161" type="curve"/>
    </contour>
  </outline>
</glyph>
<glyph name="parenleft" format="1">
  <advance width="487"/>
  <unicode hex="0028"/>
  <outline>
    <contour>
      <point x="387" y="-178" type="line"/>
      <point x="335" y="-135"/>
      <point x="290" y="-81"/>
      <point x="256" y="-12" type="curve" smooth="yes"/>
      <point x="199" y="100"/>
      <point x="191" y="221"/>
      <point x="191" y="292" type="curve" smooth="yes"/>
      <point x="191" y="365"/>
      <point x="200" y="483"/>
      <point x="254" y="592" type="curve" smooth="yes"/>
      <point x="289" y="665"/>
      <point x="335" y="719"/>
      <point x="387" y="762" type="curve"/>
      <point x="378" y="768" type="line"/>
      <point x="323" y="723"/>
      <point x="286" y="682"/>
      <point x="246" y="603" type="curve" smooth="yes"/>
      <point x="200" y="512"/>
      <point x="180" y="403"/>
      <point x="180" y="292" type="curve" smooth="yes"/>
      <point x="180" y="181"/>
      <point x="200" y="75"/>
      <point x="248" y="-22" type="curve" smooth="yes"/>
      <point x="283" y="-92"/>
      <point x="323" y="-139"/>
      <point x="378" y="-184" type="curve"/>
    </contour>
  </outline>
</glyph>
<glyph name="parenright" format="1">
  <advance width="487"/>
  <unicode hex="0029"/>
  <outline>
    <contour>
      <point x="109" y="-184" type="line"/>
      <point x="164" y="-139"/>
      <point x="204" y="-92"/>
      <point x="239" y="-22" type="curve" smooth="yes"/>
      <point x="287" y="75"/>
      <point x="306" y="181"/>
      <point x="306" y="292" type="curve" smooth="yes"/>
      <point x="306" y="403"/>
      <point x="287" y="512"/>
      <point x="240" y="603" type="curve" smooth="yes"/>
      <point x="201" y="682"/>
      <point x="164" y="723"/>
      <point x="109" y="768" type="curve"/>
      <point x="100" y="762" type="line"/>
      <point x="152" y="719"/>
      <point x="198" y="665"/>
      <point x="233" y="592" type="curve" smooth="yes"/>
      <point x="287" y="483"/>
      <point x="296" y="365"/>
      <point x="296" y="292" type="curve" smooth="yes"/>
      <point x="296" y="221"/>
      <point x="288" y="100"/>
      <point x="231" y="-12" type="curve" smooth="yes"/>
      <point x="197" y="-81"/>
      <point x="152" y="-135"/>
      <point x="100" y="-178" type="curve"/>
    </contour>
  </outline>
</glyph>
<glyph name="comma" format="1">
  <advance width="249"/>
  <unicode hex="002C"/>
  <outline>
    <contour>
      <point x="96" y="-77" type="line"/>
      <point x="103" y="-77" type="line"/>
      <point x="140" y="76" type="line"/>
      <point x="125" y="76" type="line"/>
    </contour>
  </outline>
</glyph>
<glyph name="hyphen" format="1">
  <advance width="512"/>
  <unicode hex="002D"/>
  <outline>
    <contour>
      <point x="119" y="255" type="line"/>
      <point x="119" y="243" type="line"/>
      <point x="394" y="243" type="line"/>
      <point x="394" y="255" type="line"/>
    </contour>
  </outline>
</glyph>
<glyph name="slash" format="1">
  <advance width="722"/>
  <unicode hex="002F"/>
  <outline>
    <contour>
      <point x="631" y="739" type="line"/>
      <point x="617" y="739" type="line"/>
      <point x="96" y="-12" type="line"/>
      <point x="111" y="-12" type="line"/>
    </contour>
  </outline>
</glyph>
<glyph name="zero" format="1">
  <advance width="833"/>
  <unicode hex="0030"/>
  <outline>
    <contour>
      <point x="76" y="347" type="line"/>
      <point x="76" y="123"/>
      <point x="224" y="-12"/>
      <point x="417" y="-12" type="curve" smooth="yes"/>
      <point x="609" y="-12"/>
      <point x="758" y="123"/>
      <point x="758" y="347" type="curve" smooth="yes"/>
      <point x="758" y="570"/>
      <point x="609" y="705"/>
      <point x="417" y="705" type="curve" smooth="yes"/>
      <point x="224" y="705"/>
      <point x="76" y="570"/>
      <point x="76" y="348" type="curve"/>
    </contour>
    <contour>
      <point x="417" y="694" type="line"/>
      <point x="597" y="694"/>
      <point x="747" y="573"/>
      <point x="747" y="346" type="curve" smooth="yes"/>
      <point x="747" y="119"/>
      <point x="595" y="-1"/>
      <point x="417" y="-1" type="curve" smooth="yes"/>
      <point x="238" y="-1"/>
      <point x="86" y="119"/>
      <point x="86" y="346" type="curve" smooth="yes"/>
      <point x="86" y="573"/>
      <point x="236" y="694"/>
      <point x="416" y="694" type="curve"/>
    </contour>
  </outline>
</glyph>
<glyph name="one" format="1">
  <advance width="690"/>
  <unicode hex="0031"/>
  <outline>
    <contour>
      <point x="121" y="593" type="line"/>
      <point x="126" y="582" type="line"/>
      <point x="377" y="682" type="line"/>
      <point x="377" y="0" type="line"/>
      <point x="388" y="0" type="line"/>
      <point x="388" y="698" type="line"/>
      <point x="390" y="698" type="line"/>
    </contour>
  </outline>
</glyph>
<glyph name="two" format="1">
  <advance width="833"/>
  <unicode hex="0032"/>
  <outline>
    <contour>
      <point x="702" y="14" type="line"/>
      <point x="128" y="14" type="line"/>
      <point x="228" y="336"/>
      <point x="692" y="290"/>
      <point x="692" y="532" type="curve" smooth="yes"/>
      <point x="692" y="609"/>
      <point x="632" y="705"/>
      <point x="398" y="705" type="curve" smooth="yes"/>
      <point x="248" y="705"/>
      <point x="163" y="651"/>
      <point x="136" y="559" type="curve"/>
      <point x="148" y="557" type="line"/>
      <point x="176" y="645"/>
      <point x="259" y="694"/>
      <point x="397" y="694" type="curve" smooth="yes"/>
      <point x="631" y="694"/>
      <point x="681" y="598"/>
      <point x="681" y="533" type="curve" smooth="yes"/>
      <point x="681" y="300"/>
      <point x="201" y="340"/>
      <point x="119" y="9" type="curve"/>
      <point x="128" y="0" type="line"/>
      <point x="702" y="0" type="line"/>
    </contour>
  </outline>
</glyph>
<glyph name="three" format="1">
  <advance width="833"/>
  <unicode hex="0033"/>
  <outline>
    <contour>
      <point x="379" y="363" type="line"/>
      <point x="632" y="353"/>
      <point x="685" y="274"/>
      <point x="685" y="182" type="curve" smooth="yes"/>
      <point x="685" y="76"/>
      <point x="598" y="-1"/>
      <point x="422" y="-1" type="curve" smooth="yes"/>
      <point x="238" y="-1"/>
      <point x="169" y="67"/>
      <point x="136" y="152" type="curve"/>
      <point x="127" y="147" type="line"/>
      <point x="161" y="56"/>
      <point x="242" y="-12"/>
      <point x="422" y="-12" type="curve" smooth="yes"/>
      <point x="604" y="-12"/>
      <point x="696" y="71"/>
      <point x="696" y="183" type="curve" smooth="yes"/>
      <point x="696" y="287"/>
      <point x="617" y="360"/>
      <point x="431" y="369" type="curve"/>
      <point x="431" y="370" type="line"/>
      <point x="602" y="379"/>
      <point x="657" y="465"/>
      <point x="657" y="535" type="curve" smooth="yes"/>
      <point x="657" y="626"/>
      <point x="586" y="705"/>
      <point x="416" y="705" type="curve" smooth="yes"/>
      <point x="236" y="705"/>
      <point x="175" y="620"/>
      <point x="163" y="559" type="curve"/>
      <point x="172" y="556" type="line"/>
      <point x="186" y="614"/>
      <point x="240" y="694"/>
      <point x="415" y="694" type="curve" smooth="yes"/>
      <point x="584" y="694"/>
      <point x="646" y="617"/>
      <point x="646" y="537" type="curve" smooth="yes"/>
      <point x="646" y="476"/>
      <point x="611" y="386"/>
      <point x="379" y="377" type="curve"/>
    </contour>
  </outline>
</glyph>
<glyph name="four" format="1">
  <advance width="833"/>
  <unicode hex="0034"/>
  <outline>
    <contour>
      <point x="111" y="212" type="line"/>
      <point x="111" y="203" type="line"/>
      <point x="537" y="203" type="line"/>
      <point x="537" y="0" type="line"/>
      <point x="547" y="0" type="line"/>
      <point x="547" y="203" type="line"/>
      <point x="708" y="203" type="line"/>
      <point x="708" y="215" type="line"/>
      <point x="547" y="215" type="line"/>
      <point x="547" y="698" type="line"/>
      <point x="540" y="698" type="line"/>
    </contour>
    <contour>
      <point x="130" y="215" type="line"/>
      <point x="366" y="482" type="line" smooth="yes"/>
      <point x="422" y="545"/>
      <point x="478" y="609"/>
      <point x="534" y="674" type="curve"/>
      <point x="538" y="674" type="line"/>
      <point x="537" y="601"/>
      <point x="537" y="529"/>
      <point x="537" y="455" type="curve" smooth="yes"/>
      <point x="537" y="215" type="line"/>
    </contour>
  </outline>
</glyph>
<glyph name="five" format="1">
  <advance width="833"/>
  <unicode hex="0035"/>
  <outline>
    <contour>
      <point x="179" y="351" type="line"/>
      <point x="182" y="347" type="line"/>
      <point x="220" y="388"/>
      <point x="298" y="428"/>
      <point x="408" y="428" type="curve" smooth="yes"/>
      <point x="582" y="428"/>
      <point x="692" y="338"/>
      <point x="692" y="212" type="curve" smooth="yes"/>
      <point x="692" y="79"/>
      <point x="555" y="-1"/>
      <point x="402" y="-1" type="curve" smooth="yes"/>
      <point x="239" y="-1"/>
      <point x="166" y="73"/>
      <point x="130" y="150" type="curve"/>
      <point x="119" y="145" type="line"/>
      <point x="152" y="66"/>
      <point x="234" y="-12"/>
      <point x="402" y="-12" type="curve" smooth="yes"/>
      <point x="600" y="-12"/>
      <point x="702" y="101"/>
      <point x="702" y="212" type="curve" smooth="yes"/>
      <point x="702" y="342"/>
      <point x="591" y="439"/>
      <point x="407" y="439" type="curve" smooth="yes"/>
      <point x="314" y="439"/>
      <point x="238" y="408"/>
      <point x="197" y="376" type="curve"/>
      <point x="195" y="376" type="line"/>
      <point x="257" y="678" type="line"/>
      <point x="653" y="678" type="line"/>
      <point x="651" y="692" type="line"/>
      <point x="247" y="692" type="line"/>
    </contour>
  </outline>
</glyph>
<glyph name="six" format="1">
  <advance width="833"/>
  <unicode hex="0036"/>
  <outline>
    <contour>
      <point x="118" y="271" type="line"/>
      <point x="114" y="540"/>
      <point x="211" y="694"/>
      <point x="443" y="694" type="curve" smooth="yes"/>
      <point x="581" y="694"/>
      <point x="660" y="637"/>
      <point x="695" y="557" type="curve"/>
      <point x="704" y="562" type="line"/>
      <point x="670" y="644"/>
      <point x="590" y="705"/>
      <point x="443" y="705" type="curve" smooth="yes"/>
      <point x="196" y="705"/>
      <point x="108" y="533"/>
      <point x="108" y="290" type="curve" smooth="yes"/>
      <point x="108" y="164"/>
      <point x="165" y="-12"/>
      <point x="434" y="-12" type="curve" smooth="yes"/>
      <point x="676" y="-12"/>
      <point x="738" y="135"/>
      <point x="738" y="217" type="curve" smooth="yes"/>
      <point x="738" y="351"/>
      <point x="615" y="439"/>
      <point x="421" y="439" type="curve" smooth="yes"/>
      <point x="231" y="439"/>
      <point x="138" y="353"/>
      <point x="119" y="271" type="curve"/>
    </contour>
    <contour>
      <point x="126" y="232" type="line"/>
      <point x="126" y="309"/>
      <point x="203" y="428"/>
      <point x="427" y="428" type="curve" smooth="yes"/>
      <point x="608" y="428"/>
      <point x="727" y="349"/>
      <point x="727" y="216" type="curve" smooth="yes"/>
      <point x="727" y="124"/>
      <point x="658" y="-1"/>
      <point x="434" y="-1" type="curve" smooth="yes"/>
      <point x="157" y="-1"/>
      <point x="126" y="193"/>
      <point x="126" y="231" type="curve"/>
    </contour>
  </outline>
</glyph>
<glyph name="seven" format="1">
  <advance width="841"/>
  <unicode hex="0037"/>
  <outline>
    <contour>
      <point x="680" y="692" type="line"/>
      <point x="151" y="692" type="line"/>
      <point x="151" y="679" type="line"/>
      <point x="667" y="679" type="line"/>
      <point x="667" y="677" type="line"/>
      <point x="325" y="0" type="line"/>
      <point x="337" y="0" type="line"/>
      <point x="680" y="681" type="line"/>
    </contour>
  </outline>
</glyph>
<glyph name="eight" format="1">
  <advance width="833"/>
  <unicode hex="0038"/>
  <outline>
    <contour>
      <point x="348" y="373" type="line"/>
      <point x="227" y="367"/>
      <point x="108" y="291"/>
      <point x="108" y="180" type="curve" smooth="yes"/>
      <point x="108" y="59"/>
      <point x="239" y="-11"/>
      <point x="417" y="-11" type="curve" smooth="yes"/>
      <point x="605" y="-11"/>
      <point x="725" y="64"/>
      <point x="725" y="180" type="curve" smooth="yes"/>
      <point x="725" y="293"/>
      <point x="608" y="365"/>
      <point x="485" y="373" type="curve"/>
      <point x="485" y="374" type="line"/>
      <point x="602" y="383"/>
      <point x="700" y="431"/>
      <point x="700" y="532" type="curve" smooth="yes"/>
      <point x="700" y="627"/>
      <point x="601" y="705"/>
      <point x="417" y="705" type="curve" smooth="yes"/>
      <point x="234" y="705"/>
      <point x="134" y="628"/>
      <point x="134" y="532" type="curve" smooth="yes"/>
      <point x="134" y="434"/>
      <point x="234" y="380"/>
      <point x="348" y="374" type="curve"/>
    </contour>
    <contour>
      <point x="144" y="533" type="line"/>
      <point x="144" y="621"/>
      <point x="242" y="694"/>
      <point x="417" y="694" type="curve" smooth="yes"/>
      <point x="592" y="694"/>
      <point x="689" y="621"/>
      <point x="689" y="533" type="curve" smooth="yes"/>
      <point x="689" y="445"/>
      <point x="599" y="379"/>
      <point x="417" y="379" type="curve" smooth="yes"/>
      <point x="238" y="379"/>
      <point x="144" y="445"/>
      <point x="144" y="532" type="curve"/>
    </contour>
    <contour>
      <point x="118" y="179" type="line"/>
      <point x="118" y="274"/>
      <point x="214" y="368"/>
      <point x="417" y="368" type="curve" smooth="yes"/>
      <point x="618" y="368"/>
      <point x="715" y="274"/>
      <point x="715" y="179" type="curve" smooth="yes"/>
      <point x="715" y="68"/>
      <point x="597" y="0"/>
      <point x="417" y="0" type="curve" smooth="yes"/>
      <point x="238" y="0"/>
      <point x="118" y="67"/>
      <point x="118" y="178" type="curve"/>
    </contour>
  </outline>
</glyph>
<glyph name="nine" format="1">
  <advance width="833"/>
  <unicode hex="0039"/>
  <outline>
    <contour>
      <point x="728" y="422" type="line"/>
      <point x="732" y="175"/>
      <point x="653" y="-1"/>
      <point x="404" y="-1" type="curve" smooth="yes"/>
      <point x="261" y="-1"/>
      <point x="186" y="65"/>
      <point x="142" y="144" type="curve"/>
      <point x="133" y="139" type="line"/>
      <point x="178" y="57"/>
      <point x="254" y="-12"/>
      <point x="404" y="-12" type="curve" smooth="yes"/>
      <point x="652" y="-12"/>
      <point x="738" y="164"/>
      <point x="738" y="402" type="curve" smooth="yes"/>
      <point x="738" y="473"/>
      <point x="724" y="705"/>
      <point x="409" y="705" type="curve" smooth="yes"/>
      <point x="176" y="705"/>
      <point x="108" y="572"/>
      <point x="108" y="483" type="curve" smooth="yes"/>
      <point x="108" y="376"/>
      <point x="185" y="254"/>
      <point x="425" y="254" type="curve" smooth="yes"/>
      <point x="613" y="254"/>
      <point x="707" y="339"/>
      <point x="727" y="422" type="curve"/>
    </contour>
    <contour>
      <point x="719" y="461" type="line"/>
      <point x="719" y="371"/>
      <point x="629" y="265"/>
      <point x="419" y="265" type="curve" smooth="yes"/>
      <point x="229" y="265"/>
      <point x="119" y="353"/>
      <point x="119" y="482" type="curve" smooth="yes"/>
      <point x="119" y="566"/>
      <point x="178" y="694"/>
      <point x="412" y="694" type="curve" smooth="yes"/>
      <point x="690" y="694"/>
      <point x="719" y="500"/>
      <point x="719" y="462" type="curve"/>
    </contour>
  </outline>
</glyph>
<glyph name="colon" format="1">
  <advance width="249"/>
  <unicode hex="003A"/>
  <outline>
    <contour>
      <point x="119" y="487" type="line"/>
      <point x="119" y="410" type="line"/>
      <point x="131" y="410" type="line"/>
      <point x="131" y="487" type="line"/>
    </contour>
    <contour>
      <point x="119" y="77" type="line"/>
      <point x="119" y="0" type="line"/>
      <point x="131" y="0" type="line"/>
      <point x="131" y="77" type="line"/>
    </contour>
  </outline>
</glyph>
<glyph name="semicolon" format="1">
  <advance width="249"/>
  <unicode hex="003B"/>
  <outline>
    <contour>
      <point x="119" y="487" type="line"/>
      <point x="119" y="410" type="line"/>
      <point x="131" y="410" type="line"/>
      <point x="131" y="487" type="line"/>
    </contour>
    <contour>
      <point x="96" y="-77" type="line"/>
      <point x="103" y="-77" type="line"/>
      <point x="140" y="77" type="line"/>
      <point x="125" y="77" type="line"/>
    </contour>
  </outline>
</glyph>
<glyph name="question" format="1">
  <advance width="567"/>
  <unicode hex="003F"/>
  <outline>
    <contour>
      <point x="257" y="152" type="line"/>
      <point x="254" y="259"/>
      <point x="275" y="313"/>
      <point x="408" y="377" type="curve" smooth="yes"/>
      <point x="518" y="430"/>
      <point x="554" y="474"/>
      <point x="554" y="553" type="curve" smooth="yes"/>
      <point x="554" y="676"/>
      <point x="433" y="715"/>
      <point x="293" y="715" type="curve" smooth="yes"/>
      <point x="113" y="715"/>
      <point x="38" y="654"/>
      <point x="5" y="580" type="curve"/>
      <point x="13" y="573" type="line"/>
      <point x="48" y="648"/>
      <point x="126" y="704"/>
      <point x="289" y="704" type="curve" smooth="yes"/>
      <point x="420" y="704"/>
      <point x="544" y="670"/>
      <point x="544" y="556" type="curve" smooth="yes"/>
      <point x="544" y="479"/>
      <point x="511" y="440"/>
      <point x="417" y="395" type="curve" smooth="yes"/>
      <point x="276" y="327"/>
      <point x="243" y="278"/>
      <point x="249" y="152" type="curve"/>
    </contour>
    <contour>
      <point x="250" y="77" type="line"/>
      <point x="250" y="0" type="line"/>
      <point x="261" y="0" type="line"/>
      <point x="261" y="77" type="line"/>
    </contour>
  </outline>
</glyph>
<glyph name="at" format="1">
  <advance width="989"/>
  <unicode hex="0040"/>
  <outline>
    <contour>
      <point x="718" y="56" type="line"/>
      <point x="648" y="13"/>
      <point x="575" y="-1"/>
      <point x="480" y="-1" type="curve" smooth="yes"/>
      <point x="257" y="-1"/>
      <point x="100" y="134"/>
      <point x="100" y="320" type="curve" smooth="yes"/>
      <point x="100" y="454"/>
      <point x="158" y="551"/>
      <point x="246" y="616" type="curve" smooth="yes"/>
      <point x="333" y="681"/>
      <point x="438" y="710"/>
      <point x="556" y="710" type="curve" smooth="yes"/>
      <point x="683" y="710"/>
      <point x="763" y="673"/>
      <point x="816" y="629" type="curve" smooth="yes"/>
      <point x="880" y="577"/>
      <point x="899" y="509"/>
      <point x="899" y="454" type="curve" smooth="yes"/>
      <point x="899" y="365"/>
      <point x="859" y="299"/>
      <point x="805" y="249" type="curve" smooth="yes"/>
      <point x="760" y="208"/>
      <point x="704" y="192"/>
      <point x="663" y="192" type="curve" smooth="yes"/>
      <point x="612" y="192"/>
      <point x="581" y="229"/>
      <point x="602" y="297" type="curve" smooth="yes"/>
      <point x="684" y="552" type="line"/>
      <point x="670" y="552" type="line"/>
      <point x="658" y="505" type="line"/>
      <point x="656" y="505" type="line"/>
      <point x="641" y="537"/>
      <point x="607" y="552"/>
      <point x="563" y="552" type="curve" smooth="yes"/>
      <point x="491" y="552"/>
      <point x="425" y="518"/>
      <point x="374" y="466" type="curve" smooth="yes"/>
      <point x="323" y="416"/>
      <point x="290" y="356"/>
      <point x="290" y="285" type="curve" smooth="yes"/>
      <point x="290" y="208"/>
      <point x="329" y="179"/>
      <point x="386" y="179" type="curve" smooth="yes"/>
      <point x="463" y="179"/>
      <point x="534" y="234"/>
      <point x="589" y="301" type="curve"/>
      <point x="590" y="301" type="line"/>
      <point x="581" y="270"/>
      <point x="579" y="245"/>
      <point x="591" y="220" type="curve" smooth="yes"/>
      <point x="604" y="193"/>
      <point x="636" y="179"/>
      <point x="671" y="179" type="curve" smooth="yes"/>
      <point x="726" y="179"/>
      <point x="771" y="202"/>
      <point x="812" y="237" type="curve" smooth="yes"/>
      <point x="872" y="290"/>
      <point x="913" y="373"/>
      <point x="913" y="454" type="curve" smooth="yes"/>
      <point x="913" y="592"/>
      <point x="788" y="723"/>
      <point x="553" y="723" type="curve" smooth="yes"/>
      <point x="291" y="723"/>
      <point x="86" y="568"/>
      <point x="86" y="320" type="curve" smooth="yes"/>
      <point x="86" y="127"/>
      <point x="246" y="-14"/>
      <point x="469" y="-14" type="curve" smooth="yes"/>
      <point x="559" y="-14"/>
      <point x="653" y="-3"/>
      <point x="728" y="47" type="curve"/>
    </contour>
    <contour>
      <point x="303" y="283" type="line"/>
      <point x="303" y="354"/>
      <point x="334" y="404"/>
      <point x="385" y="456" type="curve"/>
      <point x="434" y="506"/>
      <point x="495" y="538"/>
      <point x="561" y="538" type="curve" smooth="yes"/>
      <point x="625" y="538"/>
      <point x="647" y="504"/>
      <point x="647" y="488" type="curve" smooth="yes"/>
      <point x="647" y="472"/>
      <point x="630" y="420"/>
      <point x="613" y="374" type="curve" smooth="yes"/>
      <point x="582" y="289"/>
      <point x="472" y="191"/>
      <point x="391" y="191" type="curve" smooth="yes"/>
      <point x="329" y="191"/>
      <point x="303" y="225"/>
      <point x="303" y="282" type="curve"/>
    </contour>
  </outline>
</glyph>
<glyph name="A" format="1">
  <advance width="667"/>
  <unicode hex="0041"/>
  <outline>
    <contour>
      <point x="517" y="251" type="line"/>
      <point x="630" y="0" type="line"/>
      <point x="643" y="0" type="line"/>
      <point x="333" y="709" type="line"/>
      <point x="333" y="709" type="line"/>
      <point x="25" y="0" type="line"/>
      <point x="36" y="0" type="line"/>
      <point x="148" y="251" type="line"/>
    </contour>
    <contour>
      <point x="513" y="264" type="line"/>
      <point x="154" y="264" type="line"/>
      <point x="245" y="476" type="line" smooth="yes"/>
      <point x="274" y="543"/>
      <point x="302" y="610"/>
      <point x="331" y="683" type="curve"/>
      <point x="334" y="683" type="line"/>
      <point x="364" y="608"/>
      <point x="395" y="540"/>
      <point x="424" y="472" type="curve" smooth="yes"/>
    </contour>
  </outline>
</glyph>
<glyph name="B" format="1">
  <advance width="784"/>
  <unicode hex="0042"/>
  <outline>
    <contour>
      <point x="438" y="376" type="line"/>
      <point x="603" y="388"/>
      <point x="664" y="453"/>
      <point x="664" y="542" type="curve" smooth="yes"/>
      <point x="664" y="635"/>
      <point x="580" y="709"/>
      <point x="335" y="709" type="curve" smooth="yes"/>
      <point x="152" y="709" type="line"/>
      <point x="152" y="0" type="line"/>
      <point x="327" y="0" type="line" smooth="yes"/>
      <point x="495" y="0"/>
      <point x="709" y="21"/>
      <point x="709" y="194" type="curve" smooth="yes"/>
      <point x="709" y="307"/>
      <point x="604" y="367"/>
      <point x="438" y="374" type="curve"/>
    </contour>
    <contour>
      <point x="697" y="193" type="curve" smooth="yes"/>
      <point x="697" y="33"/>
      <point x="494" y="13"/>
      <point x="331" y="13" type="curve" smooth="yes"/>
      <point x="164" y="13" type="line"/>
      <point x="164" y="369" type="line"/>
      <point x="347" y="369" type="line" smooth="yes"/>
      <point x="585" y="369"/>
      <point x="697" y="304"/>
    </contour>
    <contour>
      <point x="652" y="545" type="curve" smooth="yes"/>
      <point x="652" y="463"/>
      <point x="608" y="382"/>
      <point x="333" y="382" type="curve" smooth="yes"/>
      <point x="164" y="382" type="line"/>
      <point x="164" y="696" type="line"/>
      <point x="332" y="696" type="line" smooth="yes"/>
      <point x="568" y="696"/>
      <point x="652" y="632"/>
    </contour>
  </outline>
</glyph>
<glyph name="C" format="1">
  <advance width="825"/>
  <unicode hex="0043"/>
  <outline>
    <contour>
      <point x="746" y="158" type="line"/>
      <point x="703" y="99"/>
      <point x="608" y="-2"/>
      <point x="457" y="-2" type="curve" smooth="yes"/>
      <point x="273" y="-2"/>
      <point x="93" y="111"/>
      <point x="93" y="354" type="curve" smooth="yes"/>
      <point x="93" y="612"/>
      <point x="287" y="711"/>
      <point x="462" y="711" type="curve" smooth="yes"/>
      <point x="591" y="711"/>
      <point x="674" y="644"/>
      <point x="721" y="569" type="curve"/>
      <point x="728" y="578" type="line"/>
      <point x="678" y="657"/>
      <point x="592" y="723"/>
      <point x="462" y="723" type="curve" smooth="yes"/>
      <point x="349" y="723"/>
      <point x="254" y="687"/>
      <point x="187" y="622" type="curve" smooth="yes"/>
      <point x="120" y="558"/>
      <point x="81" y="466"/>
      <point x="81" y="355" type="curve" smooth="yes"/>
      <point x="81" y="243"/>
      <point x="121" y="150"/>
      <point x="192" y="82" type="curve" smooth="yes"/>
      <point x="247" y="29"/>
      <point x="341" y="-14"/>
      <point x="457" y="-14" type="curve" smooth="yes"/>
      <point x="611" y="-14"/>
      <point x="702" y="80"/>
      <point x="752" y="148" type="curve"/>
    </contour>
  </outline>
</glyph>
<glyph name="D" format="1">
  <advance width="844"/>
  <unicode hex="0044"/>
  <outline>
    <contour>
      <point x="763" y="354" type="curve" smooth="yes"/>
      <point x="763" y="570"/>
      <point x="635" y="709"/>
      <point x="366" y="709" type="curve" smooth="yes"/>
      <point x="152" y="709" type="line"/>
      <point x="152" y="0" type="line"/>
      <point x="366" y="0" type="line" smooth="yes"/>
      <point x="635" y="0"/>
      <point x="763" y="139"/>
    </contour>
    <contour>
      <point x="752" y="354" type="curve" smooth="yes"/>
      <point x="752" y="152"/>
      <point x="636" y="13"/>
      <point x="369" y="13" type="curve" smooth="yes"/>
      <point x="164" y="13" type="line"/>
      <point x="164" y="696" type="line"/>
      <point x="370" y="696" type="line" smooth="yes"/>
      <point x="634" y="696"/>
      <point x="752" y="558"/>
    </contour>
  </outline>
</glyph>
<glyph name="E" format="1">
  <advance width="705"/>
  <unicode hex="0045"/>
  <outline>
    <contour>
      <point x="164" y="378" type="line"/>
      <point x="164" y="696" type="line"/>
      <point x="601" y="696" type="line"/>
      <point x="601" y="709" type="line"/>
      <point x="152" y="709" type="line"/>
      <point x="152" y="0" type="line"/>
      <point x="615" y="0" type="line"/>
      <point x="615" y="13" type="line"/>
      <point x="164" y="13" type="line"/>
      <point x="164" y="364" type="line"/>
      <point x="522" y="364" type="line"/>
      <point x="522" y="378" type="line"/>
    </contour>
  </outline>
</glyph>
<glyph name="F" format="1">
  <advance width="1150"/>
  <unicode hex="0046"/>
  <outline>
    <contour>
      <point x="120" y="0" type="line"/>
      <point x="160" y="0" type="line"/>
      <point x="160" y="700" type="line"/>
      <point x="120" y="700" type="line"/>
    </contour>
    <contour>
      <point x="140" y="664" type="line"/>
      <point x="1030" y="664" type="line"/>
      <point x="1030" y="700" type="line"/>
      <point x="140" y="700" type="line"/>
    </contour>
    <contour>
      <point x="140" y="294" type="line"/>
      <point x="1010" y="294" type="line"/>
      <point x="1010" y="330" type="line"/>
      <point x="140" y="330" type="line"/>
    </contour>
  </outline>
</glyph>
<glyph name="G" format="1">
  <advance width="816"/>
  <unicode hex="0047"/>
  <outline>
    <contour>
      <point x="716" y="306" type="line"/>
      <point x="476" y="306" type="line"/>
      <point x="476" y="293" type="line"/>
      <point x="704" y="293" type="line"/>
      <point x="704" y="72" type="line"/>
      <point x="631" y="22"/>
      <point x="538" y="-2"/>
      <point x="459" y="-2" type="curve" smooth="yes"/>
      <point x="259" y="-2"/>
      <point x="93" y="124"/>
      <point x="93" y="354" type="curve" smooth="yes"/>
      <point x="93" y="623"/>
      <point x="305" y="711"/>
      <point x="455" y="711" type="curve" smooth="yes"/>
      <point x="580" y="711"/>
      <point x="648" y="665"/>
      <point x="712" y="580" type="curve"/>
      <point x="718" y="588" type="line"/>
      <point x="656" y="670"/>
      <point x="593" y="723"/>
      <point x="451" y="723" type="curve" smooth="yes"/>
      <point x="295" y="723"/>
      <point x="81" y="623"/>
      <point x="81" y="354" type="curve" smooth="yes"/>
      <point x="81" y="119"/>
      <point x="258" y="-14"/>
      <point x="452" y="-14" type="curve" smooth="yes"/>
      <point x="549" y="-14"/>
      <point x="628" y="7"/>
      <point x="716" y="65" type="curve"/>
    </contour>
  </outline>
</glyph>
<glyph name="H" format="1">
  <advance width="900"/>
  <unicode hex="0048"/>
  <outline>
    <contour>
      <point x="748" y="709" type="line"/>
      <point x="736" y="709" type="line"/>
      <point x="736" y="380" type="line"/>
      <point x="164" y="380" type="line"/>
      <point x="164" y="709" type="line"/>
      <point x="152" y="709" type="line"/>
      <point x="152" y="0" type="line"/>
      <point x="164" y="0" type="line"/>
      <point x="164" y="366" type="line"/>
      <point x="736" y="366" type="line"/>
      <point x="736" y="0" type="line"/>
      <point x="748" y="0" type="line"/>
    </contour>
  </outline>
</glyph>
<glyph name="J" format="1">
  <advance width="625"/>
  <unicode hex="004A"/>
  <outline>
    <contour>
      <point x="6" y="81" type="line"/>
      <point x="60" y="27"/>
      <point x="118" y="-14"/>
      <point x="222" y="-14" type="curve" smooth="yes"/>
      <point x="382" y="-14"/>
      <point x="478" y="98"/>
      <point x="478" y="322" type="curve" smooth="yes"/>
      <point x="478" y="709" type="line"/>
      <point x="466" y="709" type="line"/>
      <point x="466" y="322" type="line" smooth="yes"/>
      <point x="466" y="107"/>
      <point x="379" y="-1"/>
      <point x="225" y="-1" type="curve" smooth="yes"/>
      <point x="133" y="-1"/>
      <point x="72" y="38"/>
      <point x="18" y="89" type="curve"/>
    </contour>
  </outline>
</glyph>
<glyph name="K" format="1">
  <advance width="731"/>
  <unicode hex="004B"/>
  <outline>
    <contour>
      <point x="164" y="282" type="line"/>
      <point x="164" y="353"/>
      <point x="164" y="424"/>
      <point x="164" y="495" type="curve" smooth="yes"/>
      <point x="164" y="709" type="line"/>
      <point x="152" y="709" type="line"/>
      <point x="152" y="0" type="line"/>
      <point x="164" y="0" type="line"/>
      <point x="164" y="264" type="line"/>
      <point x="314" y="408" type="line"/>
      <point x="675" y="0" type="line"/>
      <point x="692" y="0" type="line"/>
      <point x="321" y="416" type="line"/>
      <point x="628" y="709" type="line"/>
      <point x="610" y="709" type="line"/>
      <point x="384" y="493" type="line" smooth="yes"/>
      <point x="311" y="423"/>
      <point x="239" y="353"/>
      <point x="165" y="282" type="curve"/>
    </contour>
  </outline>
</glyph>
<glyph name="M" format="1">
  <advance width="1256"/>
  <unicode hex="004D"/>
  <outline>
    <contour>
      <point x="628" y="14" type="line"/>
      <point x="551" y="130"/>
      <point x="394" y="366"/>
      <point x="166" y="709" type="curve"/>
      <point x="152" y="709" type="line"/>
      <point x="152" y="0" type="line"/>
      <point x="164" y="0" type="line"/>
      <point x="164" y="344"/>
      <point x="164" y="571"/>
      <point x="162" y="690" type="curve"/>
      <point x="165" y="690" type="line"/>
      <point x="242" y="572"/>
      <point x="393" y="345"/>
      <point x="622" y="0" type="curve"/>
      <point x="636" y="0" type="line"/>
      <point x="864" y="343"/>
      <point x="1016" y="571"/>
      <point x="1093" y="690" type="curve"/>
      <point x="1096" y="690" type="line"/>
      <point x="1094" y="572"/>
      <point x="1094" y="344"/>
      <point x="1094" y="0" type="curve"/>
      <point x="1107" y="0" type="line"/>
      <point x="1107" y="709" type="line"/>
      <point x="1093" y="709" type="line"/>
      <point x="865" y="366"/>
      <point x="708" y="130"/>
      <point x="631" y="14" type="curve"/>
    </contour>
  </outline>
</glyph>
<glyph name="N" format="1">
  <advance width="891"/>
  <unicode hex="004E"/>
  <outline>
    <contour>
      <point x="725" y="18" type="line"/>
      <point x="630" y="136"/>
      <point x="445" y="363"/>
      <point x="163" y="709" type="curve"/>
      <point x="152" y="709" type="line"/>
      <point x="152" y="0" type="line"/>
      <point x="164" y="0" type="line"/>
      <point x="164" y="343"/>
      <point x="164" y="572"/>
      <point x="163" y="691" type="curve"/>
      <point x="165" y="691" type="line"/>
      <point x="261" y="572"/>
      <point x="448" y="343"/>
      <point x="727" y="0" type="curve"/>
      <point x="739" y="0" type="line"/>
      <point x="739" y="709" type="line"/>
      <point x="726" y="709" type="line"/>
      <point x="726" y="364"/>
      <point x="726" y="137"/>
      <point x="728" y="18" type="curve"/>
    </contour>
  </outline>
</glyph>
<glyph name="O" format="1">
  <advance width="923"/>
  <unicode hex="004F"/>
  <outline>
    <contour>
      <point x="81" y="354" type="line"/>
      <point x="81" y="106"/>
      <point x="264" y="-14"/>
      <point x="461" y="-14" type="curve" smooth="yes"/>
      <point x="659" y="-14"/>
      <point x="842" y="106"/>
      <point x="842" y="354" type="curve" smooth="yes"/>
      <point x="842" y="603"/>
      <point x="659" y="723"/>
      <point x="461" y="723" type="curve" smooth="yes"/>
      <point x="264" y="723"/>
      <point x="81" y="603"/>
      <point x="81" y="355" type="curve"/>
    </contour>
    <contour>
      <point x="461" y="711" type="line"/>
      <point x="653" y="711"/>
      <point x="830" y="597"/>
      <point x="830" y="354" type="curve" smooth="yes"/>
      <point x="830" y="112"/>
      <point x="653" y="-2"/>
      <point x="461" y="-2" type="curve" smooth="yes"/>
      <point x="270" y="-2"/>
      <point x="93" y="112"/>
      <point x="93" y="354" type="curve" smooth="yes"/>
      <point x="93" y="597"/>
      <point x="270" y="711"/>
      <point x="460" y="711" type="curve"/>
    </contour>
  </outline>
</glyph>
<glyph name="P" format="1">
  <advance width="798"/>
  <unicode hex="0050"/>
  <outline>
    <contour>
      <point x="164" y="0" type="line"/>
      <point x="164" y="295" type="line"/>
      <point x="351" y="295" type="line"/>
      <point x="634" y="295"/>
      <point x="737" y="378"/>
      <point x="737" y="504" type="curve" smooth="yes"/>
      <point x="737" y="626"/>
      <point x="637" y="709"/>
      <point x="371" y="709" type="curve" smooth="yes"/>
      <point x="152" y="709" type="line"/>
      <point x="152" y="0" type="line"/>
    </contour>
    <contour>
      <point x="164" y="309" type="line"/>
      <point x="164" y="696" type="line"/>
      <point x="381" y="696" type="line" smooth="yes"/>
      <point x="639" y="696"/>
      <point x="725" y="610"/>
      <point x="725" y="505" type="curve" smooth="yes"/>
      <point x="725" y="389"/>
      <point x="632" y="309"/>
      <point x="350" y="309" type="curve" smooth="yes"/>
    </contour>
  </outline>
</glyph>
<glyph name="Q" format="1">
  <advance width="923"/>
  <unicode hex="0051"/>
  <outline>
    <contour>
      <point x="684" y="46" type="line"/>
      <point x="779" y="107"/>
      <point x="842" y="209"/>
      <point x="842" y="354" type="curve" smooth="yes"/>
      <point x="842" y="603"/>
      <point x="659" y="723"/>
      <point x="461" y="723" type="curve" smooth="yes"/>
      <point x="264" y="723"/>
      <point x="81" y="603"/>
      <point x="81" y="354" type="curve" smooth="yes"/>
      <point x="81" y="106"/>
      <point x="264" y="-14"/>
      <point x="461" y="-14" type="curve" smooth="yes"/>
      <point x="539" y="-14"/>
      <point x="614" y="4"/>
      <point x="675" y="38" type="curve"/>
      <point x="835" y="-97" type="line"/>
      <point x="842" y="-88" type="line"/>
    </contour>
    <contour>
      <point x="461" y="711" type="line"/>
      <point x="653" y="711"/>
      <point x="830" y="597"/>
      <point x="830" y="354" type="curve" smooth="yes"/>
      <point x="830" y="112"/>
      <point x="653" y="-2"/>
      <point x="461" y="-2" type="curve" smooth="yes"/>
      <point x="270" y="-2"/>
      <point x="93" y="112"/>
      <point x="93" y="354" type="curve" smooth="yes"/>
      <point x="93" y="597"/>
      <point x="270" y="711"/>
      <point x="460" y="711" type="curve"/>
    </contour>
  </outline>
</glyph>
<glyph name="R" format="1">
  <advance width="795"/>
  <unicode hex="0052"/>
  <outline>
    <contour>
      <point x="773" y="0" type="line"/>
      <point x="758" y="0" type="line"/>
      <point x="439" y="312" type="line"/>
      <point x="164" y="312" type="line"/>
      <point x="164" y="0" type="line"/>
      <point x="152" y="0" type="line"/>
      <point x="152" y="709" type="line"/>
      <point x="380" y="709" type="line" smooth="yes"/>
      <point x="638" y="709"/>
      <point x="725" y="629"/>
      <point x="725" y="516" type="curve" smooth="yes"/>
      <point x="725" y="400"/>
      <point x="608" y="316"/>
      <point x="453" y="312" type="curve"/>
    </contour>
    <contour>
      <point x="164" y="325" type="line"/>
      <point x="442" y="325" type="line" smooth="yes"/>
      <point x="617" y="325"/>
      <point x="713" y="416"/>
      <point x="713" y="516" type="curve" smooth="yes"/>
      <point x="713" y="609"/>
      <point x="654" y="696"/>
      <point x="373" y="696" type="curve" smooth="yes"/>
      <point x="164" y="696" type="line"/>
    </contour>
  </outline>
</glyph>
<glyph name="S" format="1">
  <advance width="782"/>
  <unicode hex="0053"/>
  <outline>
    <contour>
      <point x="662" y="622" type="line"/>
      <point x="626" y="682"/>
      <point x="553" y="723"/>
      <point x="390" y="723" type="curve" smooth="yes"/>
      <point x="300" y="723"/>
      <point x="227" y="710"/>
      <point x="174" y="683" type="curve" smooth="yes"/>
      <point x="117" y="654"/>
      <point x="94" y="607"/>
      <point x="94" y="565" type="curve" smooth="yes"/>
      <point x="94" y="504"/>
      <point x="127" y="467"/>
      <point x="162" y="448" type="curve" smooth="yes"/>
      <point x="194" y="430"/>
      <point x="224" y="419"/>
      <point x="381" y="385" type="curve" smooth="yes"/>
      <point x="532" y="351"/>
      <point x="578" y="337"/>
      <point x="616" y="316" type="curve" smooth="yes"/>
      <point x="651" y="296"/>
      <point x="692" y="259"/>
      <point x="692" y="190" type="curve" smooth="yes"/>
      <point x="692" y="138"/>
      <point x="661" y="92"/>
      <point x="615" y="61" type="curve" smooth="yes"/>
      <point x="559" y="24"/>
      <point x="483" y="-2"/>
      <point x="386" y="-2" type="curve" smooth="yes"/>
      <point x="232" y="-2"/>
      <point x="130" y="44"/>
      <point x="82" y="104" type="curve"/>
      <point x="76" y="90" type="line"/>
      <point x="130" y="29"/>
      <point x="224" y="-14"/>
      <point x="385" y="-14" type="curve" smooth="yes"/>
      <point x="481" y="-14"/>
      <point x="562" y="10"/>
      <point x="619" y="48" type="curve" smooth="yes"/>
      <point x="673" y="85"/>
      <point x="704" y="136"/>
      <point x="704" y="191" type="curve" smooth="yes"/>
      <point x="704" y="255"/>
      <point x="667" y="297"/>
      <point x="630" y="321" type="curve" smooth="yes"/>
      <point x="583" y="352"/>
      <point x="528" y="365"/>
      <point x="403" y="393" type="curve" smooth="yes"/>
      <point x="259" y="425"/>
      <point x="212" y="436"/>
      <point x="172" y="456" type="curve" smooth="yes"/>
      <point x="133" y="476"/>
      <point x="106" y="513"/>
      <point x="106" y="561" type="curve" smooth="yes"/>
      <point x="106" y="610"/>
      <point x="131" y="645"/>
      <point x="177" y="671" type="curve" smooth="yes"/>
      <point x="226" y="698"/>
      <point x="307" y="711"/>
      <point x="391" y="711" type="curve" smooth="yes"/>
      <point x="542" y="711"/>
      <point x="620" y="671"/>
      <point x="654" y="612" type="curve"/>
    </contour>
  </outline>
</glyph>
<glyph name="T" format="1">
  <advance width="674"/>
  <unicode hex="0054"/>
  <outline>
    <contour>
      <point x="633" y="709" type="line"/>
      <point x="40" y="709" type="line"/>
      <point x="40" y="696" type="line"/>
      <point x="331" y="696" type="line"/>
      <point x="331" y="0" type="line"/>
      <point x="343" y="0" type="line"/>
      <point x="343" y="696" type="line"/>
      <point x="633" y="696" type="line"/>
    </contour>
  </outline>
</glyph>
<glyph name="U" format="1">
  <advance width="818"/>
  <unicode hex="0055"/>
  <outline>
    <contour>
      <point x="676" y="709" type="line"/>
      <point x="663" y="709" type="line"/>
      <point x="663" y="286" type="line" smooth="yes"/>
      <point x="663" y="80"/>
      <point x="611" y="-2"/>
      <point x="407" y="-2" type="curve" smooth="yes"/>
      <point x="210" y="-2"/>
      <point x="154" y="79"/>
      <point x="154" y="286" type="curve" smooth="yes"/>
      <point x="154" y="709" type="line"/>
      <point x="142" y="709" type="line"/>
      <point x="142" y="282" type="line" smooth="yes"/>
      <point x="142" y="54"/>
      <point x="219" y="-14"/>
      <point x="407" y="-14" type="curve" smooth="yes"/>
      <point x="600" y="-14"/>
      <point x="676" y="54"/>
      <point x="676" y="282" type="curve" smooth="yes"/>
    </contour>
  </outline>
</glyph>
<glyph name="V" format="1">
  <advance width="736"/>
  <unicode hex="0056"/>
  <outline>
    <contour>
      <point x="370" y="16" type="line"/>
      <point x="317" y="135"/>
      <point x="265" y="248"/>
      <point x="211" y="365" type="curve" smooth="yes"/>
      <point x="51" y="709" type="line"/>
      <point x="40" y="709" type="line"/>
      <point x="367" y="0" type="line"/>
      <point x="374" y="0" type="line"/>
      <point x="701" y="709" type="line"/>
      <point x="690" y="709" type="line"/>
      <point x="530" y="365" type="line" smooth="yes"/>
      <point x="476" y="248"/>
      <point x="425" y="137"/>
      <point x="371" y="16" type="curve"/>
    </contour>
  </outline>
</glyph>
<glyph name="W" format="1">
  <advance width="1182"/>
  <unicode hex="0057"/>
  <outline>
    <contour>
      <point x="594" y="693" type="line"/>
      <point x="639" y="576"/>
      <point x="684" y="460"/>
      <point x="729" y="345" type="curve" smooth="yes"/>
      <point x="865" y="0" type="line"/>
      <point x="871" y="0" type="line"/>
      <point x="1147" y="709" type="line"/>
      <point x="1136" y="709" type="line"/>
      <point x="1001" y="365" type="line" smooth="yes"/>
      <point x="957" y="252"/>
      <point x="913" y="138"/>
      <point x="868" y="14" type="curve"/>
      <point x="866" y="14" type="line"/>
      <point x="822" y="136"/>
      <point x="777" y="251"/>
      <point x="733" y="365" type="curve" smooth="yes"/>
      <point x="598" y="709" type="line"/>
      <point x="589" y="709" type="line"/>
      <point x="454" y="364" type="line" smooth="yes"/>
      <point x="410" y="251"/>
      <point x="366" y="137"/>
      <point x="321" y="14" type="curve"/>
      <point x="319" y="14" type="line"/>
      <point x="274" y="136"/>
      <point x="230" y="250"/>
      <point x="186" y="364" type="curve" smooth="yes"/>
      <point x="51" y="709" type="line"/>
      <point x="40" y="709" type="line"/>
      <point x="316" y="0" type="line"/>
      <point x="322" y="0" type="line"/>
      <point x="458" y="346" type="line" smooth="yes"/>
      <point x="503" y="462"/>
      <point x="548" y="576"/>
      <point x="592" y="693" type="curve"/>
    </contour>
  </outline>
</glyph>
<glyph name="X" format="1">
  <advance width="795"/>
  <unicode hex="0058"/>
  <outline>
    <contour>
      <point x="398" y="379" type="line"/>
      <point x="396" y="379" type="line"/>
      <point x="115" y="709" type="line"/>
      <point x="100" y="709" type="line"/>
      <point x="390" y="370" type="line"/>
      <point x="75" y="0" type="line"/>
      <point x="87" y="0" type="line"/>
      <point x="396" y="361" type="line"/>
      <point x="398" y="361" type="line"/>
      <point x="706" y="0" type="line"/>
      <point x="718" y="0" type="line"/>
      <point x="403" y="370" type="line"/>
      <point x="693" y="709" type="line"/>
      <point x="678" y="709" type="line"/>
    </contour>
  </outline>
</glyph>
<glyph name="Y" format="1">
  <advance width="684"/>
  <unicode hex="0059"/>
  <outline>
    <contour>
      <point x="649" y="709" type="line"/>
      <point x="635" y="709" type="line"/>
      <point x="490" y="516" type="line" smooth="yes"/>
      <point x="441" y="451"/>
      <point x="393" y="387"/>
      <point x="343" y="321" type="curve"/>
      <point x="341" y="321" type="line"/>
      <point x="293" y="386"/>
      <point x="243" y="449"/>
      <point x="195" y="514" type="curve" smooth="yes"/>
      <point x="49" y="709" type="line"/>
      <point x="35" y="709" type="line"/>
      <point x="336" y="309" type="line"/>
      <point x="336" y="0" type="line"/>
      <point x="348" y="0" type="line"/>
      <point x="348" y="309" type="line"/>
    </contour>
  </outline>
</glyph>
<glyph name="Z" format="1">
  <advance width="682"/>
  <unicode hex="005A"/>
  <outline>
    <contour>
      <point x="86" y="0" type="line"/>
      <point x="608" y="0" type="line"/>
      <point x="608" y="13" type="line"/>
      <point x="97" y="13" type="line"/>
      <point x="591" y="694" type="line"/>
      <point x="591" y="709" type="line"/>
      <point x="120" y="709" type="line"/>
      <point x="120" y="696" type="line"/>
      <point x="581" y="696" type="line"/>
      <point x="86" y="15" type="line"/>
    </contour>
  </outline>
</glyph>
<glyph name="bracketleft" format="1">
  <advance width="468"/>
  <unicode hex="005B"/>
  <outline>
    <contour>
      <point x="344" y="-156" type="line"/>
      <point x="344" y="-144" type="line"/>
      <point x="216" y="-144" type="line"/>
      <point x="216" y="727" type="line"/>
      <point x="344" y="727" type="line"/>
      <point x="344" y="739" type="line"/>
      <point x="205" y="739" type="line"/>
      <point x="205" y="-156" type="line"/>
    </contour>
  </outline>
</glyph>
<glyph name="backslash" format="1">
  <advance width="722"/>
  <unicode hex="005C"/>
  <outline>
    <contour>
      <point x="92" y="739" type="line"/>
      <point x="612" y="-12" type="line"/>
      <point x="627" y="-12" type="line"/>
      <point x="106" y="739" type="line"/>
    </contour>
  </outline>
</glyph>
<glyph name="bracketright" format="1">
  <advance width="468"/>
  <unicode hex="005D"/>
  <outline>
    <contour>
      <point x="125" y="-156" type="line"/>
      <point x="265" y="-156" type="line"/>
      <point x="265" y="739" type="line"/>
      <point x="125" y="739" type="line"/>
      <point x="125" y="727" type="line"/>
      <point x="254" y="727" type="line"/>
      <point x="254" y="-144" type="line"/>
      <point x="125" y="-144" type="line"/>
    </contour>
  </outline>
</glyph>
<glyph name="a" format="1">
  <advance width="636"/>
  <unicode hex="0061"/>
  <outline>
    <contour>
      <point x="555" y="0" type="line"/>
      <point x="555" y="2" type="line"/>
      <point x="526" y="35"/>
      <point x="522" y="44"/>
      <point x="522" y="96" type="curve" smooth="yes"/>
      <point x="522" y="380" type="line" smooth="yes"/>
      <point x="522" y="485"/>
      <point x="467" y="544"/>
      <point x="311" y="544" type="curve" smooth="yes"/>
      <point x="156" y="544"/>
      <point x="97" y="469"/>
      <point x="93" y="402" type="curve"/>
      <point x="104" y="400" type="line"/>
      <point x="109" y="469"/>
      <point x="170" y="531"/>
      <point x="310" y="531" type="curve" smooth="yes"/>
      <point x="462" y="531"/>
      <point x="512" y="479"/>
      <point x="512" y="372" type="curve" smooth="yes"/>
      <point x="512" y="345" type="line"/>
      <point x="217" y="320"/>
      <point x="65" y="279"/>
      <point x="65" y="134" type="curve" smooth="yes"/>
      <point x="65" y="67"/>
      <point x="111" y="-12"/>
      <point x="289" y="-12" type="curve" smooth="yes"/>
      <point x="343" y="-12"/>
      <point x="450" y="7"/>
      <point x="512" y="82" type="curve"/>
      <point x="512" y="82" type="line"/>
      <point x="512" y="48"/>
      <point x="518" y="26"/>
      <point x="541" y="0" type="curve"/>
    </contour>
    <contour>
      <point x="512" y="100" type="line"/>
      <point x="445" y="13"/>
      <point x="337" y="1"/>
      <point x="290" y="1" type="curve" smooth="yes"/>
      <point x="115" y="1"/>
      <point x="75" y="76"/>
      <point x="75" y="135" type="curve" smooth="yes"/>
      <point x="75" y="271"/>
      <point x="229" y="307"/>
      <point x="512" y="332" type="curve"/>
    </contour>
  </outline>
</glyph>
<glyph name="b" format="1">
  <advance width="721"/>
  <unicode hex="0062"/>
  <outline>
    <contour>
      <point x="121" y="0" type="line"/>
      <point x="132" y="0" type="line"/>
      <point x="131" y="85" type="line"/>
      <point x="134" y="85" type="line"/>
      <point x="166" y="59"/>
      <point x="228" y="-12"/>
      <point x="366" y="-12" type="curve" smooth="yes"/>
      <point x="555" y="-12"/>
      <point x="650" y="124"/>
      <point x="650" y="266" type="curve" smooth="yes"/>
      <point x="650" y="422"/>
      <point x="544" y="544"/>
      <point x="367" y="544" type="curve" smooth="yes"/>
      <point x="280" y="544"/>
      <point x="198" y="515"/>
      <point x="132" y="446" type="curve"/>
      <point x="132" y="446" type="line"/>
      <point x="132" y="727" type="line"/>
      <point x="121" y="727" type="line"/>
    </contour>
    <contour>
      <point x="132" y="428" type="line"/>
      <point x="205" y="505"/>
      <point x="282" y="532"/>
      <point x="368" y="532" type="curve" smooth="yes"/>
      <point x="540" y="532"/>
      <point x="640" y="413"/>
      <point x="640" y="266" type="curve" smooth="yes"/>
      <point x="640" y="127"/>
      <point x="544" y="0"/>
      <point x="368" y="0" type="curve" smooth="yes"/>
      <point x="230" y="0"/>
      <point x="163" y="77"/>
      <point x="132" y="104" type="curve"/>
    </contour>
  </outline>
</glyph>
<glyph name="c" format="1">
  <advance width="657"/>
  <unicode hex="0063"/>
  <outline>
    <contour>
      <point x="579" y="445" type="line"/>
      <point x="533" y="507"/>
      <point x="470" y="544"/>
      <point x="359" y="544" type="curve" smooth="yes"/>
      <point x="217" y="544"/>
      <point x="71" y="455"/>
      <point x="71" y="266" type="curve" smooth="yes"/>
      <point x="71" y="72"/>
      <point x="211" y="-12"/>
      <point x="359" y="-12" type="curve" smooth="yes"/>
      <point x="495" y="-12"/>
      <point x="559" y="48"/>
      <point x="596" y="107" type="curve"/>
      <point x="588" y="114" type="line"/>
      <point x="551" y="54"/>
      <point x="487" y="0"/>
      <point x="360" y="0" type="curve" smooth="yes"/>
      <point x="221" y="0"/>
      <point x="81" y="78"/>
      <point x="81" y="266" type="curve" smooth="yes"/>
      <point x="81" y="446"/>
      <point x="223" y="532"/>
      <point x="360" y="532" type="curve" smooth="yes"/>
      <point x="471" y="532"/>
      <point x="530" y="495"/>
      <point x="573" y="436" type="curve"/>
    </contour>
  </outline>
</glyph>
<glyph name="d" format="1">
  <advance width="721"/>
  <unicode hex="0064"/>
  <outline>
    <contour>
      <point x="590" y="85" type="line"/>
      <point x="589" y="0" type="line"/>
      <point x="600" y="0" type="line"/>
      <point x="600" y="727" type="line"/>
      <point x="589" y="727" type="line"/>
      <point x="589" y="446" type="line"/>
      <point x="588" y="446" type="line"/>
      <point x="523" y="515"/>
      <point x="441" y="544"/>
      <point x="354" y="544" type="curve" smooth="yes"/>
      <point x="177" y="544"/>
      <point x="71" y="422"/>
      <point x="71" y="266" type="curve" smooth="yes"/>
      <point x="71" y="124"/>
      <point x="166" y="-12"/>
      <point x="355" y="-12" type="curve" smooth="yes"/>
      <point x="499" y="-12"/>
      <point x="564" y="68"/>
      <point x="587" y="85" type="curve"/>
    </contour>
    <contour>
      <point x="353" y="0" type="line"/>
      <point x="177" y="0"/>
      <point x="81" y="127"/>
      <point x="81" y="266" type="curve" smooth="yes"/>
      <point x="81" y="413"/>
      <point x="181" y="532"/>
      <point x="353" y="532" type="curve" smooth="yes"/>
      <point x="439" y="532"/>
      <point x="516" y="505"/>
      <point x="589" y="428" type="curve"/>
      <point x="589" y="104" type="line"/>
      <point x="551" y="70"/>
      <point x="485" y="0"/>
      <point x="354" y="0" type="curve"/>
    </contour>
  </outline>
</glyph>
<glyph name="e" format="1">
  <advance width="667"/>
  <unicode hex="0065"/>
  <outline>
    <contour>
      <point x="610" y="271" type="line"/>
      <point x="610" y="350"/>
      <point x="581" y="415"/>
      <point x="540" y="460" type="curve" smooth="yes"/>
      <point x="489" y="515"/>
      <point x="422" y="544"/>
      <point x="350" y="544" type="curve" smooth="yes"/>
      <point x="268" y="544"/>
      <point x="203" y="517"/>
      <point x="154" y="473" type="curve" smooth="yes"/>
      <point x="102" y="427"/>
      <point x="71" y="359"/>
      <point x="71" y="273" type="curve" smooth="yes"/>
      <point x="71" y="178"/>
      <point x="102" y="110"/>
      <point x="148" y="64" type="curve" smooth="yes"/>
      <point x="202" y="11"/>
      <point x="278" y="-12"/>
      <point x="350" y="-12" type="curve" smooth="yes"/>
      <point x="435" y="-12"/>
      <point x="491" y="11"/>
      <point x="530" y="38" type="curve" smooth="yes"/>
      <point x="569" y="65"/>
      <point x="592" y="95"/>
      <point x="605" y="117" type="curve"/>
      <point x="600" y="128" type="line"/>
      <point x="548" y="45"/>
      <point x="465" y="1"/>
      <point x="348" y="1" type="curve" smooth="yes"/>
      <point x="231" y="1"/>
      <point x="80" y="69"/>
      <point x="81" y="271" type="curve"/>
    </contour>
    <contour>
      <point x="81" y="286" type="line"/>
      <point x="80" y="418"/>
      <point x="189" y="531"/>
      <point x="350" y="531" type="curve" smooth="yes"/>
      <point x="497" y="531"/>
      <point x="595" y="411"/>
      <point x="598" y="286" type="curve"/>
    </contour>
  </outline>
</glyph>
<glyph name="g" format="1">
  <advance width="715"/>
  <unicode hex="0067"/>
  <outline>
    <contour>
      <point x="589" y="450" type="line"/>
      <point x="586" y="450" type="line"/>
      <point x="527" y="513"/>
      <point x="458" y="544"/>
      <point x="359" y="544" type="curve" smooth="yes"/>
      <point x="131" y="544"/>
      <point x="71" y="370"/>
      <point x="71" y="262" type="curve" smooth="yes"/>
      <point x="71" y="77"/>
      <point x="218" y="-12"/>
      <point x="350" y="-12" type="curve" smooth="yes"/>
      <point x="475" y="-12"/>
      <point x="541" y="42"/>
      <point x="587" y="85" type="curve"/>
      <point x="588" y="85" type="line"/>
      <point x="588" y="15" type="line" smooth="yes"/>
      <point x="588" y="-77"/>
      <point x="569" y="-131"/>
      <point x="530" y="-176" type="curve" smooth="yes"/>
      <point x="483" y="-230"/>
      <point x="405" y="-249"/>
      <point x="346" y="-249" type="curve" smooth="yes"/>
      <point x="291" y="-249"/>
      <point x="243" y="-239"/>
      <point x="206" y="-223" type="curve" smooth="yes"/>
      <point x="155" y="-201"/>
      <point x="123" y="-173"/>
      <point x="102" y="-150" type="curve"/>
      <point x="98" y="-162" type="line"/>
      <point x="129" y="-195"/>
      <point x="167" y="-220"/>
      <point x="201" y="-234" type="curve" smooth="yes"/>
      <point x="244" y="-253"/>
      <point x="291" y="-261"/>
      <point x="347" y="-261" type="curve" smooth="yes"/>
      <point x="425" y="-261"/>
      <point x="493" y="-232"/>
      <point x="536" y="-185" type="curve" smooth="yes"/>
      <point x="581" y="-135"/>
      <point x="599" y="-74"/>
      <point x="599" y="12" type="curve" smooth="yes"/>
      <point x="599" y="532" type="line"/>
      <point x="588" y="532" type="line"/>
    </contour>
    <contour>
      <point x="81" y="266" type="line"/>
      <point x="81" y="354"/>
      <point x="134" y="532"/>
      <point x="361" y="532" type="curve" smooth="yes"/>
      <point x="468" y="532"/>
      <point x="538" y="492"/>
      <point x="588" y="429" type="curve"/>
      <point x="588" y="102" type="line"/>
      <point x="541" y="54"/>
      <point x="473" y="0"/>
      <point x="353" y="0" type="curve" smooth="yes"/>
      <point x="208" y="0"/>
      <point x="81" y="93"/>
      <point x="81" y="265" type="curve"/>
    </contour>
  </outline>
</glyph>
<glyph name="i" format="1">
  <advance width="273"/>
  <unicode hex="0069"/>
  <outline>
    <contour>
      <point x="142" y="648" type="line"/>
      <point x="142" y="727" type="line"/>
      <point x="131" y="727" type="line"/>
      <point x="131" y="648" type="line"/>
    </contour>
    <contour>
      <point x="142" y="532" type="line"/>
      <point x="131" y="532" type="line"/>
      <point x="131" y="0" type="line"/>
      <point x="142" y="0" type="line"/>
    </contour>
  </outline>
</glyph>
<glyph name="j" format="1">
  <advance width="273"/>
  <unicode hex="006A"/>
  <outline>
    <contour>
      <point x="142" y="648" type="line"/>
      <point x="142" y="727" type="line"/>
      <point x="131" y="727" type="line"/>
      <point x="131" y="648" type="line"/>
    </contour>
    <contour>
      <point x="-286" y="-192" type="line"/>
      <point x="-257" y="-215"/>
      <point x="-228" y="-230"/>
      <point x="-197" y="-242" type="curve" smooth="yes"/>
      <point x="-164" y="-254"/>
      <point x="-129" y="-261"/>
      <point x="-85" y="-261" type="curve" smooth="yes"/>
      <point x="0" y="-261"/>
      <point x="61" y="-237"/>
      <point x="98" y="-196" type="curve" smooth="yes"/>
      <point x="127" y="-164"/>
      <point x="142" y="-125"/>
      <point x="142" y="-50" type="curve" smooth="yes"/>
      <point x="142" y="532" type="line"/>
      <point x="131" y="532" type="line"/>
      <point x="131" y="-51" type="line" smooth="yes"/>
      <point x="131" y="-122"/>
      <point x="119" y="-157"/>
      <point x="93" y="-187" type="curve" smooth="yes"/>
      <point x="47" y="-238"/>
      <point x="-27" y="-249"/>
      <point x="-79" y="-249" type="curve" smooth="yes"/>
      <point x="-140" y="-249"/>
      <point x="-172" y="-237"/>
      <point x="-193" y="-229" type="curve" smooth="yes"/>
      <point x="-229" y="-216"/>
      <point x="-251" y="-202"/>
      <point x="-278" y="-181" type="curve"/>
    </contour>
  </outline>
</glyph>
<glyph name="k" format="1">
  <advance width="617"/>
  <unicode hex="006B"/>
  <outline>
    <contour>
      <point x="253" y="315" type="line"/>
      <point x="528" y="532" type="line"/>
      <point x="510" y="532" type="line"/>
      <point x="322" y="384" type="line" smooth="yes"/>
      <point x="260" y="335"/>
      <point x="197" y="285"/>
      <point x="134" y="236" type="curve"/>
      <point x="132" y="236" type="line"/>
      <point x="132" y="285"/>
      <point x="132" y="334"/>
      <point x="132" y="384" type="curve" smooth="yes"/>
      <point x="132" y="727" type="line"/>
      <point x="121" y="727" type="line"/>
      <point x="121" y="0" type="line"/>
      <point x="132" y="0" type="line"/>
      <point x="132" y="220" type="line"/>
      <point x="243" y="306" type="line"/>
      <point x="577" y="0" type="line"/>
      <point x="592" y="0" type="line"/>
    </contour>
  </outline>
</glyph>
<glyph name="m" format="1">
  <advance width="1018"/>
  <unicode hex="006D"/>
  <outline>
    <contour>
      <point x="902" y="0" type="line"/>
      <point x="902" y="406" type="line" smooth="yes"/>
      <point x="902" y="444"/>
      <point x="892" y="478"/>
      <point x="869" y="502" type="curve" smooth="yes"/>
      <point x="845" y="527"/>
      <point x="808" y="544"/>
      <point x="753" y="544" type="curve" smooth="yes"/>
      <point x="720" y="544"/>
      <point x="686" y="537"/>
      <point x="647" y="521" type="curve" smooth="yes"/>
      <point x="608" y="506"/>
      <point x="564" y="476"/>
      <point x="517" y="438" type="curve"/>
      <point x="515" y="438" type="line"/>
      <point x="515" y="455"/>
      <point x="501" y="491"/>
      <point x="475" y="511" type="curve" smooth="yes"/>
      <point x="450" y="531"/>
      <point x="414" y="544"/>
      <point x="370" y="544" type="curve" smooth="yes"/>
      <point x="339" y="544"/>
      <point x="305" y="538"/>
      <point x="267" y="522" type="curve" smooth="yes"/>
      <point x="228" y="506"/>
      <point x="183" y="479"/>
      <point x="133" y="438" type="curve"/>
      <point x="131" y="438" type="line"/>
      <point x="132" y="532" type="line"/>
      <point x="121" y="532" type="line"/>
      <point x="121" y="0" type="line"/>
      <point x="132" y="0" type="line"/>
      <point x="132" y="422" type="line"/>
      <point x="176" y="461"/>
      <point x="221" y="490"/>
      <point x="263" y="508" type="curve" smooth="yes"/>
      <point x="304" y="526"/>
      <point x="342" y="533"/>
      <point x="373" y="533" type="curve" smooth="yes"/>
      <point x="415" y="533"/>
      <point x="448" y="522"/>
      <point x="471" y="502" type="curve" smooth="yes"/>
      <point x="497" y="480"/>
      <point x="506" y="452"/>
      <point x="506" y="416" type="curve" smooth="yes"/>
      <point x="506" y="0" type="line"/>
      <point x="517" y="0" type="line"/>
      <point x="517" y="423" type="line"/>
      <point x="566" y="465"/>
      <point x="611" y="492"/>
      <point x="651" y="509" type="curve" smooth="yes"/>
      <point x="690" y="526"/>
      <point x="725" y="533"/>
      <point x="756" y="533" type="curve" smooth="yes"/>
      <point x="809" y="533"/>
      <point x="842" y="518"/>
      <point x="862" y="495" type="curve" smooth="yes"/>
      <point x="887" y="467"/>
      <point x="891" y="433"/>
      <point x="891" y="402" type="curve" smooth="yes"/>
      <point x="891" y="0" type="line"/>
    </contour>
  </outline>
</glyph>
<glyph name="n" format="1">
  <advance width="705"/>
  <unicode hex="006E"/>
  <outline>
    <contour>
      <point x="589" y="0" type="line"/>
      <point x="589" y="380" type="line" smooth="yes"/>
      <point x="589" y="434"/>
      <point x="575" y="468"/>
      <point x="548" y="496" type="curve" smooth="yes"/>
      <point x="519" y="526"/>
      <point x="472" y="544"/>
      <point x="409" y="544" type="curve" smooth="yes"/>
      <point x="366" y="544"/>
      <point x="322" y="536"/>
      <point x="274" y="517" type="curve" smooth="yes"/>
      <point x="227" y="498"/>
      <point x="181" y="471"/>
      <point x="134" y="435" type="curve"/>
      <point x="131" y="435" type="line"/>
      <point x="132" y="532" type="line"/>
      <point x="121" y="532" type="line"/>
      <point x="121" y="0" type="line"/>
      <point x="132" y="0" type="line"/>
      <point x="132" y="419" type="line"/>
      <point x="165" y="448"/>
      <point x="233" y="490"/>
      <point x="279" y="507" type="curve" smooth="yes"/>
      <point x="326" y="524"/>
      <point x="370" y="533"/>
      <point x="410" y="533" type="curve" smooth="yes"/>
      <point x="476" y="533"/>
      <point x="517" y="514"/>
      <point x="542" y="489" type="curve" smooth="yes"/>
      <point x="572" y="459"/>
      <point x="578" y="419"/>
      <point x="578" y="380" type="curve" smooth="yes"/>
      <point x="578" y="0" type="line"/>
    </contour>
  </outline>
</glyph>
<glyph name="o" format="1">
  <advance width="724"/>
  <unicode hex="006F"/>
  <outline>
    <contour>
      <point x="653" y="266" type="line"/>
      <point x="653" y="443"/>
      <point x="522" y="544"/>
      <point x="363" y="544" type="curve" smooth="yes"/>
      <point x="202" y="544"/>
      <point x="71" y="443"/>
      <point x="71" y="266" type="curve" smooth="yes"/>
      <point x="71" y="118"/>
      <point x="165" y="-12"/>
      <point x="363" y="-12" type="curve" smooth="yes"/>
      <point x="566" y="-12"/>
      <point x="653" y="126"/>
      <point x="653" y="265" type="curve"/>
    </contour>
    <contour>
      <point x="363" y="0" type="line"/>
      <point x="170" y="0"/>
      <point x="81" y="128"/>
      <point x="81" y="266" type="curve" smooth="yes"/>
      <point x="81" y="433"/>
      <point x="203" y="532"/>
      <point x="363" y="532" type="curve" smooth="yes"/>
      <point x="521" y="532"/>
      <point x="643" y="433"/>
      <point x="643" y="266" type="curve" smooth="yes"/>
      <point x="643" y="128"/>
      <point x="553" y="0"/>
      <point x="364" y="0" type="curve"/>
    </contour>
  </outline>
</glyph>
<glyph name="p" format="1">
  <advance width="721"/>
  <unicode hex="0070"/>
  <outline>
    <contour>
      <point x="121" y="-248" type="line"/>
      <point x="132" y="-248" type="line"/>
      <point x="132" y="85" type="line"/>
      <point x="134" y="85" type="line"/>
      <point x="163" y="56"/>
      <point x="205" y="28"/>
      <point x="238" y="13" type="curve" smooth="yes"/>
      <point x="291" y="-10"/>
      <point x="336" y="-12"/>
      <point x="368" y="-12" type="curve" smooth="yes"/>
      <point x="461" y="-12"/>
      <point x="534" y="24"/>
      <point x="577" y="72" type="curve" smooth="yes"/>
      <point x="630" y="129"/>
      <point x="650" y="201"/>
      <point x="650" y="268" type="curve" smooth="yes"/>
      <point x="650" y="347"/>
      <point x="623" y="411"/>
      <point x="579" y="458" type="curve" smooth="yes"/>
      <point x="526" y="515"/>
      <point x="457" y="544"/>
      <point x="367" y="544" type="curve" smooth="yes"/>
      <point x="314" y="544"/>
      <point x="270" y="534"/>
      <point x="232" y="517" type="curve" smooth="yes"/>
      <point x="187" y="496"/>
      <point x="155" y="471"/>
      <point x="133" y="446" type="curve"/>
      <point x="131" y="446" type="line"/>
      <point x="132" y="532" type="line"/>
      <point x="121" y="532" type="line"/>
    </contour>
    <contour>
      <point x="132" y="428" type="line"/>
      <point x="162" y="462"/>
      <point x="201" y="489"/>
      <point x="239" y="507" type="curve" smooth="yes"/>
      <point x="283" y="527"/>
      <point x="326" y="532"/>
      <point x="369" y="532" type="curve" smooth="yes"/>
      <point x="457" y="532"/>
      <point x="526" y="500"/>
      <point x="572" y="450" type="curve" smooth="yes"/>
      <point x="617" y="401"/>
      <point x="640" y="335"/>
      <point x="640" y="268" type="curve" smooth="yes"/>
      <point x="640" y="187"/>
      <point x="611" y="125"/>
      <point x="570" y="81" type="curve" smooth="yes"/>
      <point x="516" y="23"/>
      <point x="444" y="0"/>
      <point x="369" y="0" type="curve" smooth="yes"/>
      <point x="317" y="0"/>
      <point x="275" y="10"/>
      <point x="244" y="24" type="curve" smooth="yes"/>
      <point x="213" y="39"/>
      <point x="176" y="61"/>
      <point x="132" y="104" type="curve"/>
    </contour>
  </outline>
</glyph>
<glyph name="q" format="1">
  <advance width="721"/>
  <unicode hex="0071"/>
  <outline>
    <contour>
      <point x="600" y="-248" type="line"/>
      <point x="600" y="532" type="line"/>
      <point x="589" y="532" type="line"/>
      <point x="590" y="446" type="line"/>
      <point x="588" y="446" type="line"/>
      <point x="566" y="471"/>
      <point x="534" y="496"/>
      <point x="489" y="517" type="curve" smooth="yes"/>
      <point x="451" y="534"/>
      <point x="408" y="544"/>
      <point x="354" y="544" type="curve" smooth="yes"/>
      <point x="264" y="544"/>
      <point x="195" y="515"/>
      <point x="142" y="458" type="curve" smooth="yes"/>
      <point x="99" y="411"/>
      <point x="71" y="347"/>
      <point x="71" y="268" type="curve" smooth="yes"/>
      <point x="71" y="200"/>
      <point x="92" y="129"/>
      <point x="145" y="71" type="curve" smooth="yes"/>
      <point x="188" y="24"/>
      <point x="260" y="-12"/>
      <point x="353" y="-12" type="curve" smooth="yes"/>
      <point x="385" y="-12"/>
      <point x="430" y="-10"/>
      <point x="483" y="13" type="curve" smooth="yes"/>
      <point x="516" y="28"/>
      <point x="558" y="56"/>
      <point x="587" y="85" type="curve"/>
      <point x="589" y="85" type="line"/>
      <point x="589" y="-248" type="line"/>
    </contour>
    <contour>
      <point x="589" y="104" type="line"/>
      <point x="544" y="61"/>
      <point x="508" y="39"/>
      <point x="477" y="24" type="curve" smooth="yes"/>
      <point x="446" y="10"/>
      <point x="404" y="0"/>
      <point x="352" y="0" type="curve" smooth="yes"/>
      <point x="278" y="0"/>
      <point x="206" y="24"/>
      <point x="151" y="81" type="curve" smooth="yes"/>
      <point x="109" y="124"/>
      <point x="81" y="187"/>
      <point x="81" y="268" type="curve" smooth="yes"/>
      <point x="81" y="335"/>
      <point x="104" y="401"/>
      <point x="149" y="450" type="curve" smooth="yes"/>
      <point x="196" y="500"/>
      <point x="263" y="532"/>
      <point x="352" y="532" type="curve" smooth="yes"/>
      <point x="395" y="532"/>
      <point x="438" y="527"/>
      <point x="481" y="507" type="curve" smooth="yes"/>
      <point x="520" y="489"/>
      <point x="559" y="462"/>
      <point x="589" y="428" type="curve"/>
    </contour>
  </outline>
</glyph>
<glyph name="r" format="1">
  <advance width="554"/>
  <unicode hex="0072"/>
  <outline>
    <contour>
      <point x="131" y="443" type="line"/>
      <point x="132" y="532" type="line"/>
      <point x="121" y="532" type="line"/>
      <point x="121" y="0" type="line"/>
      <point x="132" y="0" type="line"/>
      <point x="132" y="427" type="line"/>
      <point x="168" y="458"/>
      <point x="210" y="486"/>
      <point x="251" y="506" type="curve" smooth="yes"/>
      <point x="297" y="527"/>
      <point x="337" y="533"/>
      <point x="371" y="533" type="curve" smooth="yes"/>
      <point x="403" y="533"/>
      <point x="428" y="528"/>
      <point x="449" y="518" type="curve" smooth="yes"/>
      <point x="466" y="510"/>
      <point x="481" y="499"/>
      <point x="495" y="484" type="curve"/>
      <point x="507" y="492" type="line"/>
      <point x="490" y="507"/>
      <point x="476" y="518"/>
      <point x="456" y="528" type="curve" smooth="yes"/>
      <point x="429" y="540"/>
      <point x="400" y="544"/>
      <point x="370" y="544" type="curve" smooth="yes"/>
      <point x="323" y="544"/>
      <point x="282" y="532"/>
      <point x="243" y="514" type="curve" smooth="yes"/>
      <point x="204" y="496"/>
      <point x="171" y="473"/>
      <point x="132" y="443" type="curve"/>
    </contour>
  </outline>
</glyph>
<glyph name="s" format="1">
  <advance width="646"/>
  <unicode hex="0073"/>
  <outline>
    <contour>
      <point x="559" y="462" type="line"/>
      <point x="538" y="487"/>
      <point x="513" y="505"/>
      <point x="481" y="518" type="curve" smooth="yes"/>
      <point x="433" y="539"/>
      <point x="380" y="544"/>
      <point x="324" y="544" type="curve" smooth="yes"/>
      <point x="248" y="544"/>
      <point x="187" y="534"/>
      <point x="143" y="515" type="curve" smooth="yes"/>
      <point x="102" y="496"/>
      <point x="79" y="465"/>
      <point x="79" y="422" type="curve" smooth="yes"/>
      <point x="79" y="389"/>
      <point x="94" y="363"/>
      <point x="123" y="341" type="curve" smooth="yes"/>
      <point x="160" y="315"/>
      <point x="197" y="307"/>
      <point x="331" y="286" type="curve" smooth="yes"/>
      <point x="465" y="266"/>
      <point x="506" y="255"/>
      <point x="541" y="225" type="curve" smooth="yes"/>
      <point x="566" y="202"/>
      <point x="575" y="170"/>
      <point x="575" y="144" type="curve" smooth="yes"/>
      <point x="575" y="105"/>
      <point x="555" y="72"/>
      <point x="519" y="48" type="curve" smooth="yes"/>
      <point x="469" y="15"/>
      <point x="396" y="2"/>
      <point x="328" y="2" type="curve" smooth="yes"/>
      <point x="200" y="2"/>
      <point x="106" y="41"/>
      <point x="65" y="86" type="curve"/>
      <point x="60" y="72" type="line"/>
      <point x="88" y="48"/>
      <point x="118" y="27"/>
      <point x="163" y="13" type="curve" smooth="yes"/>
      <point x="211" y="-2"/>
      <point x="267" y="-12"/>
      <point x="333" y="-12" type="curve" smooth="yes"/>
      <point x="418" y="-12"/>
      <point x="482" y="6"/>
      <point x="525" y="37" type="curve" smooth="yes"/>
      <point x="568" y="68"/>
      <point x="586" y="96"/>
      <point x="586" y="146" type="curve" smooth="yes"/>
      <point x="586" y="180"/>
      <point x="570" y="215"/>
      <point x="544" y="236" type="curve" smooth="yes"/>
      <point x="508" y="266"/>
      <point x="461" y="279"/>
      <point x="331" y="299" type="curve" smooth="yes"/>
      <point x="190" y="322"/>
      <point x="156" y="329"/>
      <point x="122" y="356" type="curve" smooth="yes"/>
      <point x="97" y="375"/>
      <point x="90" y="398"/>
      <point x="90" y="421" type="curve" smooth="yes"/>
      <point x="90" y="458"/>
      <point x="111" y="483"/>
      <point x="145" y="500" type="curve" smooth="yes"/>
      <point x="191" y="524"/>
      <point x="260" y="530"/>
      <point x="324" y="530" type="curve" smooth="yes"/>
      <point x="446" y="530"/>
      <point x="522" y="494"/>
      <point x="553" y="449" type="curve"/>
    </contour>
  </outline>
</glyph>
<glyph name="t" format="1">
  <advance width="671"/>
  <unicode hex="0074"/>
  <outline>
    <contour>
      <point x="189" y="532" type="line"/>
      <point x="21" y="532" type="line"/>
      <point x="21" y="519" type="line"/>
      <point x="189" y="519" type="line"/>
      <point x="189" y="178" type="line" smooth="yes"/>
      <point x="189" y="13"/>
      <point x="333" y="-12"/>
      <point x="431" y="-12" type="curve" smooth="yes"/>
      <point x="523" y="-12"/>
      <point x="599" y="22"/>
      <point x="636" y="43" type="curve"/>
      <point x="630" y="57" type="line"/>
      <point x="592" y="37"/>
      <point x="517" y="0"/>
      <point x="432" y="0" type="curve" smooth="yes"/>
      <point x="329" y="0"/>
      <point x="200" y="26"/>
      <point x="200" y="177" type="curve" smooth="yes"/>
      <point x="200" y="519" type="line"/>
      <point x="578" y="519" type="line"/>
      <point x="578" y="532" type="line"/>
      <point x="200" y="532" type="line"/>
      <point x="200" y="643" type="line"/>
      <point x="189" y="643" type="line"/>
    </contour>
  </outline>
</glyph>
<glyph name="u" format="1">
  <advance width="704"/>
  <unicode hex="0075"/>
  <outline>
    <contour>
      <point x="116" y="532" type="line"/>
      <point x="116" y="152" type="line" smooth="yes"/>
      <point x="116" y="98"/>
      <point x="130" y="64"/>
      <point x="157" y="36" type="curve" smooth="yes"/>
      <point x="186" y="6"/>
      <point x="232" y="-12"/>
      <point x="295" y="-12" type="curve" smooth="yes"/>
      <point x="337" y="-12"/>
      <point x="381" y="-3"/>
      <point x="427" y="15" type="curve" smooth="yes"/>
      <point x="473" y="33"/>
      <point x="514" y="60"/>
      <point x="570" y="97" type="curve"/>
      <point x="573" y="97" type="line"/>
      <point x="572" y="0" type="line"/>
      <point x="583" y="0" type="line"/>
      <point x="583" y="532" type="line"/>
      <point x="572" y="532" type="line"/>
      <point x="572" y="114" type="line"/>
      <point x="519" y="73"/>
      <point x="464" y="43"/>
      <point x="425" y="27" type="curve" smooth="yes"/>
      <point x="379" y="9"/>
      <point x="334" y="-1"/>
      <point x="295" y="-1" type="curve" smooth="yes"/>
      <point x="225" y="-1"/>
      <point x="186" y="21"/>
      <point x="164" y="42" type="curve" smooth="yes"/>
      <point x="132" y="72"/>
      <point x="127" y="111"/>
      <point x="127" y="152" type="curve" smooth="yes"/>
      <point x="127" y="532" type="line"/>
    </contour>
  </outline>
</glyph>
<glyph name="v" format="1">
  <advance width="654"/>
  <unicode hex="0076"/>
  <outline>
    <contour>
      <point x="326" y="10" type="line"/>
      <point x="281" y="93"/>
      <point x="233" y="181"/>
      <point x="186" y="269" type="curve" smooth="yes"/>
      <point x="46" y="532" type="line"/>
      <point x="35" y="532" type="line"/>
      <point x="323" y="0" type="line"/>
      <point x="330" y="0" type="line"/>
      <point x="618" y="532" type="line"/>
      <point x="608" y="532" type="line"/>
      <point x="468" y="271" type="line" smooth="yes"/>
      <point x="422" y="184"/>
      <point x="375" y="97"/>
      <point x="328" y="10" type="curve"/>
    </contour>
  </outline>
</glyph>
<glyph name="w" format="1">
  <advance width="1229"/>
  <unicode hex="0077"/>
  <outline>
    <contour>
      <point x="613" y="518" type="line"/>
      <point x="660" y="429"/>
      <point x="708" y="344"/>
      <point x="756" y="257" type="curve" smooth="yes"/>
      <point x="897" y="0" type="line"/>
      <point x="907" y="0" type="line"/>
      <point x="1194" y="532" type="line"/>
      <point x="1183" y="532" type="line"/>
      <point x="1044" y="274" type="line" smooth="yes"/>
      <point x="997" y="188"/>
      <point x="950" y="101"/>
      <point x="902" y="13" type="curve"/>
      <point x="899" y="13" type="line"/>
      <point x="852" y="100"/>
      <point x="805" y="186"/>
      <point x="757" y="273" type="curve" smooth="yes"/>
      <point x="615" y="532" type="line"/>
      <point x="611" y="532" type="line"/>
      <point x="469" y="271" type="line" smooth="yes"/>
      <point x="421" y="184"/>
      <point x="377" y="102"/>
      <point x="329" y="13" type="curve"/>
      <point x="326" y="13" type="line"/>
      <point x="279" y="101"/>
      <point x="231" y="188"/>
      <point x="185" y="275" type="curve" smooth="yes"/>
      <point x="46" y="532" type="line"/>
      <point x="35" y="532" type="line"/>
      <point x="323" y="0" type="line"/>
      <point x="331" y="0" type="line"/>
      <point x="473" y="259" type="line" smooth="yes"/>
      <point x="520" y="345"/>
      <point x="566" y="429"/>
      <point x="612" y="518" type="curve"/>
    </contour>
  </outline>
</glyph>
<glyph name="x" format="1">
  <advance width="609"/>
  <unicode hex="0078"/>
  <outline>
    <contour>
      <point x="525" y="532" type="line"/>
      <point x="514" y="532" type="line"/>
      <point x="306" y="289" type="line"/>
      <point x="303" y="289" type="line"/>
      <point x="95" y="532" type="line"/>
      <point x="83" y="532" type="line"/>
      <point x="83" y="532" type="line"/>
      <point x="299" y="277" type="line"/>
      <point x="62" y="1" type="line"/>
      <point x="62" y="0" type="line"/>
      <point x="73" y="0" type="line"/>
      <point x="303" y="268" type="line"/>
      <point x="305" y="268" type="line"/>
      <point x="536" y="0" type="line"/>
      <point x="547" y="0" type="line"/>
      <point x="547" y="1" type="line"/>
      <point x="311" y="277" type="line"/>
    </contour>
  </outline>
</glyph>
<glyph name="y" format="1">
  <advance width="646"/>
  <unicode hex="0079"/>
  <outline>
    <contour>
      <point x="611" y="532" type="line"/>
      <point x="601" y="532" type="line"/>
      <point x="494" y="283" type="line" smooth="yes"/>
      <point x="459" y="199"/>
      <point x="420" y="110"/>
      <point x="383" y="23" type="curve"/>
      <point x="381" y="23" type="line"/>
      <point x="328" y="107"/>
      <point x="273" y="195"/>
      <point x="219" y="281" type="curve" smooth="yes"/>
      <point x="62" y="532" type="line"/>
      <point x="51" y="532" type="line"/>
      <point x="377" y="8" type="line"/>
      <point x="324" y="-114" type="line" smooth="yes"/>
      <point x="309" y="-149"/>
      <point x="290" y="-178"/>
      <point x="266" y="-201" type="curve" smooth="yes"/>
      <point x="232" y="-235"/>
      <point x="187" y="-249"/>
      <point x="134" y="-249" type="curve" smooth="yes"/>
      <point x="108" y="-249"/>
      <point x="85" y="-245"/>
      <point x="65" y="-239" type="curve" smooth="yes"/>
      <point x="43" y="-233"/>
      <point x="26" y="-223"/>
      <point x="15" y="-216" type="curve"/>
      <point x="7" y="-228" type="line"/>
      <point x="21" y="-237"/>
      <point x="37" y="-244"/>
      <point x="60" y="-251" type="curve" smooth="yes"/>
      <point x="79" y="-257"/>
      <point x="102" y="-261"/>
      <point x="134" y="-261" type="curve" smooth="yes"/>
      <point x="198" y="-261"/>
      <point x="241" y="-239"/>
      <point x="272" y="-211" type="curve" smooth="yes"/>
      <point x="303" y="-182"/>
      <point x="320" y="-146"/>
      <point x="331" y="-120" type="curve" smooth="yes"/>
    </contour>
  </outline>
</glyph>
<glyph name="z" format="1">
  <advance width="596"/>
  <unicode hex="007A"/>
  <outline>
    <contour>
      <point x="545" y="532" type="line"/>
      <point x="84" y="532" type="line"/>
      <point x="84" y="519" type="line"/>
      <point x="536" y="519" type="line"/>
      <point x="63" y="17" type="line"/>
      <point x="63" y="0" type="line"/>
      <point x="561" y="0" type="line"/>
      <point x="561" y="13" type="line"/>
      <point x="74" y="13" type="line"/>
      <point x="545" y="515" type="line"/>
    </contour>
  </outline>
</glyph>
<glyph name="braceleft" format="1">
  <advance width="456"/>
  <unicode hex="007B"/>
  <outline>
    <contour>
      <point x="106" y="286" type="line"/>
      <point x="144" y="281"/>
      <point x="168" y="272"/>
      <point x="186" y="252" type="curve" smooth="yes"/>
      <point x="205" y="231"/>
      <point x="215" y="205"/>
      <point x="215" y="144" type="curve" smooth="yes"/>
      <point x="215" y="-2" type="line" smooth="yes"/>
      <point x="215" y="-56"/>
      <point x="228" y="-93"/>
      <point x="251" y="-116" type="curve" smooth="yes"/>
      <point x="276" y="-142"/>
      <point x="313" y="-153"/>
      <point x="356" y="-156" type="curve"/>
      <point x="356" y="-145" type="line"/>
      <point x="316" y="-143"/>
      <point x="282" y="-133"/>
      <point x="258" y="-111" type="curve" smooth="yes"/>
      <point x="238" y="-92"/>
      <point x="226" y="-60"/>
      <point x="226" y="-6" type="curve" smooth="yes"/>
      <point x="226" y="155" type="line" smooth="yes"/>
      <point x="226" y="207"/>
      <point x="214" y="238"/>
      <point x="194" y="260" type="curve" smooth="yes"/>
      <point x="178" y="279"/>
      <point x="155" y="288"/>
      <point x="125" y="291" type="curve"/>
      <point x="125" y="292" type="line"/>
      <point x="155" y="295"/>
      <point x="178" y="304"/>
      <point x="194" y="323" type="curve" smooth="yes"/>
      <point x="214" y="345"/>
      <point x="226" y="376"/>
      <point x="226" y="428" type="curve" smooth="yes"/>
      <point x="226" y="589" type="line" smooth="yes"/>
      <point x="226" y="643"/>
      <point x="239" y="674"/>
      <point x="258" y="694" type="curve" smooth="yes"/>
      <point x="277" y="714"/>
      <point x="316" y="726"/>
      <point x="356" y="728" type="curve"/>
      <point x="356" y="739" type="line"/>
      <point x="313" y="736"/>
      <point x="276" y="725"/>
      <point x="251" y="699" type="curve" smooth="yes"/>
      <point x="228" y="676"/>
      <point x="215" y="639"/>
      <point x="215" y="585" type="curve" smooth="yes"/>
      <point x="215" y="439" type="line" smooth="yes"/>
      <point x="215" y="378"/>
      <point x="205" y="352"/>
      <point x="186" y="331" type="curve" smooth="yes"/>
      <point x="168" y="311"/>
      <point x="144" y="302"/>
      <point x="106" y="297" type="curve"/>
    </contour>
  </outline>
</glyph>
<glyph name="braceright" format="1">
  <advance width="456"/>
  <unicode hex="007D"/>
  <outline>
    <contour>
      <point x="350" y="297" type="line"/>
      <point x="312" y="302"/>
      <point x="288" y="311"/>
      <point x="270" y="331" type="curve" smooth="yes"/>
      <point x="251" y="352"/>
      <point x="241" y="378"/>
      <point x="241" y="439" type="curve" smooth="yes"/>
      <point x="241" y="585" type="line" smooth="yes"/>
      <point x="241" y="639"/>
      <point x="228" y="676"/>
      <point x="205" y="699" type="curve" smooth="yes"/>
      <point x="180" y="725"/>
      <point x="143" y="736"/>
      <point x="100" y="739" type="curve"/>
      <point x="100" y="728" type="line"/>
      <point x="140" y="726"/>
      <point x="179" y="714"/>
      <point x="198" y="694" type="curve" smooth="yes"/>
      <point x="217" y="674"/>
      <point x="230" y="643"/>
      <point x="230" y="589" type="curve" smooth="yes"/>
      <point x="230" y="428" type="line" smooth="yes"/>
      <point x="230" y="376"/>
      <point x="242" y="345"/>
      <point x="262" y="323" type="curve" smooth="yes"/>
      <point x="278" y="304"/>
      <point x="301" y="295"/>
      <point x="331" y="292" type="curve"/>
      <point x="331" y="291" type="line"/>
      <point x="301" y="288"/>
      <point x="278" y="279"/>
      <point x="262" y="260" type="curve" smooth="yes"/>
      <point x="242" y="238"/>
      <point x="230" y="207"/>
      <point x="230" y="155" type="curve" smooth="yes"/>
      <point x="230" y="-6" type="line" smooth="yes"/>
      <point x="230" y="-60"/>
      <point x="218" y="-92"/>
      <point x="198" y="-111" type="curve" smooth="yes"/>
      <point x="174" y="-133"/>
      <point x="140" y="-143"/>
      <point x="100" y="-145" type="curve"/>
      <point x="100" y="-156" type="line"/>
      <point x="143" y="-153"/>
      <point x="180" y="-142"/>
      <point x="205" y="-116" type="curve" smooth="yes"/>
      <point x="228" y="-93"/>
      <point x="241" y="-56"/>
      <point x="241" y="-2" type="curve" smooth="yes"/>
      <point x="241" y="144" type="line" smooth="yes"/>
      <point x="241" y="205"/>
      <point x="251" y="231"/>
      <point x="270" y="252" type="curve" smooth="yes"/>
      <point x="288" y="272"/>
      <point x="312" y="281"/>
      <point x="350" y="286" type="curve"/>
    </contour>
  </outline>
</glyph>
<glyph name="paragraph" format="1">
  <advance width="639"/>
  <unicode hex="00B6"/>
  <outline>
    <contour>
      <point x="296" y="-131" type="line"/>
      <point x="309" y="-131" type="line"/>
      <point x="309" y="696" type="line"/>
      <point x="466" y="696" type="line"/>
      <point x="466" y="-131" type="line"/>
      <point x="479" y="-131" type="line"/>
      <point x="479" y="709" type="line"/>
      <point x="275" y="709" type="line" smooth="yes"/>
      <point x="207" y="709"/>
      <point x="151" y="689"/>
      <point x="114" y="655" type="curve" smooth="yes"/>
      <point x="76" y="622"/>
      <point x="54" y="573"/>
      <point x="54" y="515" type="curve" smooth="yes"/>
      <point x="54" y="440"/>
      <point x="85" y="392"/>
      <point x="129" y="362" type="curve" smooth="yes"/>
      <point x="174" y="332"/>
      <point x="234" y="320"/>
      <point x="296" y="320" type="curve"/>
    </contour>
  </outline>
</glyph>
<glyph name="endash" format="1">
  <advance width="589"/>
  <unicode hex="2013"/>
  <outline>
    <contour>
      <point x="30" y="255" type="line"/>
      <point x="30" y="245" type="line"/>
      <point x="559" y="245" type="line"/>
      <point x="559" y="255" type="line"/>
    </contour>
  </outline>
</glyph>
<glyph name="emdash" format="1">
  <advance width="1179"/>
  <unicode hex="2014"/>
  <outline>
    <contour>
      <point x="30" y="255" type="line"/>
      <point x="30" y="245" type="line"/>
      <point x="1149" y="245" type="line"/>
      <point x="1149" y="255" type="line"/>
    </contour>
  </outline>
</glyph>
<glyph name="bullet" format="1">
  <advance width="566"/>
  <unicode hex="2022"/>
  <outline>
    <contour>
      <point x="283" y="462" type="line"/>
      <point x="216" y="462"/>
      <point x="162" y="408"/>
      <point x="162" y="341" type="curve" smooth="yes"/>
      <point x="162" y="274"/>
      <point x="216" y="220"/>
      <point x="283" y="220" type="curve" smooth="yes"/>
      <point x="350" y="220"/>
      <point x="404" y="274"/>
      <point x="404" y="341" type="curve" smooth="yes"/>
      <point x="404" y="408"/>
      <point x="350" y="462"/>
      <point x="284" y="462" type="curve"/>
    </contour>
  </outline>
</glyph>
<glyph name="trademark" format="1">
  <advance width="1153"/>
  <unicode hex="2122"/>
  <outline>
    <contour>
      <point x="398" y="709" type="line"/>
      <point x="33" y="709" type="line"/>
      <point x="33" y="697" type="line"/>
      <point x="209" y="697" type="line"/>
      <point x="209" y="353" type="line"/>
      <point x="222" y="353" type="line"/>
      <point x="222" y="697" type="line"/>
      <point x="398" y="697" type="line"/>
    </contour>
    <contour>
      <point x="724" y="364" type="line"/>
      <point x="685" y="422"/>
      <point x="644" y="479"/>
      <point x="604" y="537" type="curve" smooth="yes"/>
      <point x="483" y="709" type="line"/>
      <point x="465" y="709" type="line"/>
      <point x="465" y="353" type="line"/>
      <point x="476" y="353" type="line"/>
      <point x="476" y="525" type="line" smooth="yes"/>
      <point x="476" y="583"/>
      <point x="476" y="639"/>
      <point x="476" y="700" type="curve"/>
      <point x="477" y="700" type="line"/>
      <point x="517" y="640"/>
      <point x="557" y="584"/>
      <point x="597" y="526" type="curve" smooth="yes"/>
      <point x="718" y="353" type="line"/>
      <point x="733" y="353" type="line"/>
      <point x="853" y="524" type="line" smooth="yes"/>
      <point x="893" y="582"/>
      <point x="934" y="639"/>
      <point x="974" y="700" type="curve"/>
      <point x="976" y="700" type="line"/>
      <point x="975" y="640"/>
      <point x="975" y="583"/>
      <point x="975" y="525" type="curve" smooth="yes"/>
      <point x="975" y="353" type="line"/>
      <point x="988" y="353" type="line"/>
      <point x="988" y="709" type="line"/>
      <point x="969" y="709" type="line"/>
      <point x="848" y="537" type="line" smooth="yes"/>
      <point x="809" y="480"/>
      <point x="768" y="423"/>
      <point x="726" y="364" type="curve"/>
    </contour>
  </outline>
</glyph>
<glyph name="fl" format="1">
  <advance width="857"/>
  <unicode hex="FB02"/>
  <outline>
    <contour>
      <point x="620" y="669" type="line"/>
      <point x="596" y="689"/>
      <point x="570" y="702"/>
      <point x="543" y="712" type="curve" smooth="yes"/>
      <point x="503" y="728"/>
      <point x="459" y="733"/>
      <point x="408" y="733" type="curve" smooth="yes"/>
      <point x="344" y="733"/>
      <point x="291" y="721"/>
      <point x="251" y="698" type="curve" smooth="yes"/>
      <point x="201" y="667"/>
      <point x="174" y="617"/>
      <point x="174" y="553" type="curve" smooth="yes"/>
      <point x="174" y="532" type="line"/>
      <point x="42" y="532" type="line"/>
      <point x="42" y="519" type="line"/>
      <point x="174" y="519" type="line"/>
      <point x="174" y="0" type="line"/>
      <point x="184" y="0" type="line"/>
      <point x="184" y="519" type="line"/>
      <point x="721" y="519" type="line"/>
      <point x="721" y="532" type="line"/>
      <point x="184" y="532" type="line"/>
      <point x="184" y="553" type="line" smooth="yes"/>
      <point x="184" y="618"/>
      <point x="213" y="663"/>
      <point x="256" y="688" type="curve" smooth="yes"/>
      <point x="297" y="713"/>
      <point x="350" y="721"/>
      <point x="406" y="721" type="curve" smooth="yes"/>
      <point x="455" y="721"/>
      <point x="501" y="714"/>
      <point x="537" y="700" type="curve" smooth="yes"/>
      <point x="571" y="688"/>
      <point x="595" y="674"/>
      <point x="611" y="657" type="curve"/>
    </contour>
    <contour>
      <point x="726" y="0" type="line"/>
      <point x="726" y="727" type="line"/>
      <point x="715" y="727" type="line"/>
      <point x="715" y="0" type="line"/>
    </contour>
  </outline>
</glyph>
